<svg width="10" height="5" fill="none" xmlns="http://www.w3.org/2000/svg"><path d="M4.752 5c2.625 0 4.752-1.12 4.752-2.5S7.377 0 4.752 0C2.128 0 0 1.12 0 2.5S2.128 5 4.752 5Z" fill="url(#a)"/><path d="M4.752 4.814c2.522 0 4.567-1.036 4.567-2.314S7.274.186 4.752.186C2.23.186.186 1.222.186 2.5S2.23 4.814 4.752 4.814Z" fill="#6280B6"/><path d="m5.677 3.247.227-1.166a.595.595 0 0 0-.127-.583.994.994 0 0 0-.679-.179h-.39l.111-.577a.074.074 0 0 0-.073-.088h-.543a.074.074 0 0 0-.073.06l-.24 1.238a.696.696 0 0 0-.162-.358.945.945 0 0 0-.747-.274H1.935a.074.074 0 0 0-.073.06l-.487 2.505a.074.074 0 0 0 .073.089h.544a.074.074 0 0 0 .073-.06l.118-.606h.407c.18.004.36-.019.533-.068.145-.049.279-.128.39-.234.091-.083.169-.18.23-.287l-.097.501a.074.074 0 0 0 .073.088h.543a.074.074 0 0 0 .073-.06l.268-1.375h.37c.159 0 .205.032.218.045.014.014.034.056.009.193L4.984 3.22a.074.074 0 0 0 .073.088h.55a.074.074 0 0 0 .07-.061Zm-2.51-.962a.594.594 0 0 1-.19.37.737.737 0 0 1-.447.11H2.29l.174-.9h.313c.23 0 .322.049.36.09a.401.401 0 0 1 .031.33ZM7.993 1.594a.945.945 0 0 0-.747-.274h-1.05a.074.074 0 0 0-.072.06l-.487 2.506a.074.074 0 0 0 .073.088h.546a.074.074 0 0 0 .073-.06l.117-.606h.408c.18.005.36-.018.532-.068.146-.048.279-.128.39-.234.19-.172.32-.402.366-.654a.853.853 0 0 0-.15-.758Zm-.566.69a.594.594 0 0 1-.19.371.737.737 0 0 1-.448.11h-.241l.175-.9h.312c.23 0 .322.048.36.09a.4.4 0 0 1 .032.33Z" fill="#fff"/><path d="M2.776 1.79a.558.558 0 0 1 .414.115.455.455 0 0 1 .05.394.66.66 0 0 1-.218.415.801.801 0 0 1-.492.125h-.332l.204-1.048.374-.001ZM1.446 3.9h.546l.13-.666h.467c.172.005.344-.017.51-.065a.964.964 0 0 0 .362-.218c.18-.16.3-.377.343-.614a.78.78 0 0 0-.13-.693.872.872 0 0 0-.691-.249H1.935L1.446 3.9ZM4.205.729h.543l-.132.666H5.1a.94.94 0 0 1 .628.159.525.525 0 0 1 .103.514l-.226 1.166h-.55l.216-1.108a.3.3 0 0 0-.027-.258.38.38 0 0 0-.272-.068h-.433L4.26 3.235h-.543L4.205.729ZM7.036 1.79a.558.558 0 0 1 .414.115.455.455 0 0 1 .05.394.66.66 0 0 1-.219.415.801.801 0 0 1-.492.125h-.332l.204-1.048.375-.001ZM5.706 3.9h.546l.13-.666h.467c.172.005.343-.017.509-.065a.964.964 0 0 0 .363-.218c.179-.16.3-.377.343-.614a.78.78 0 0 0-.13-.693.872.872 0 0 0-.692-.249h-1.05L5.707 3.9Z" fill="#000004"/><defs><radialGradient id="a" cx="0" cy="0" r="1" gradientUnits="userSpaceOnUse" gradientTransform="translate(2.853 .88) scale(6.24033)"><stop stop-color="#fff"/><stop offset=".5" stop-color="#4C6B96"/><stop offset="1" stop-color="#231F20"/></radialGradient></defs></svg>