<svg width="5" height="4" fill="none" xmlns="http://www.w3.org/2000/svg"><path d="M4.305 2.155c-.157 0-.312.036-.453.105a.955.955 0 0 1-.102-.234.63.63 0 0 1-.009-.197c.016-.072.035-.143.06-.213-.001-.009-.011-.052-.112-.053-.1-.002-.187.019-.196.046a1.102 1.102 0 0 0-.042.148 3.516 3.516 0 0 1-.306.589.569.569 0 0 1-.079-.37 1.75 1.75 0 0 1 .06-.212c-.001-.01-.011-.052-.112-.054-.1-.001-.187.02-.196.046-.01.027-.021.09-.042.149-.02.06-.265.605-.329.745a4.896 4.896 0 0 1-.085.176l-.027.052v.001c-.014.025-.028.048-.036.048a.305.305 0 0 1 .002-.155c.036-.19.123-.483.122-.494 0-.005.017-.056-.056-.083a.09.09 0 0 0-.103.018c-.007 0-.011.016-.011.016s.08-.33-.152-.33a.688.688 0 0 0-.442.3l-.336.183c-.053.03-.11.06-.161.09L1.15 2.46c-.281-.3-.798-.511-.776-.912.008-.146.058-.53.993-.995.768-.38 1.38-.274 1.486-.041.152.332-.328.95-1.122 1.039a.598.598 0 0 1-.502-.127c-.042-.046-.049-.049-.064-.04-.026.014-.01.055 0 .079a.469.469 0 0 0 .287.226c.312.067.638.035.931-.093.482-.186.857-.704.747-1.138-.11-.44-.84-.585-1.532-.339A3.482 3.482 0 0 0 .42.795c-.38.356-.44.665-.416.795.09.46.723.76.977.982a1.542 1.542 0 0 1-.035.02c-.127.062-.61.315-.732.583-.137.303.022.52.127.55a.781.781 0 0 0 .841-.341.844.844 0 0 0 .072-.783l.1-.058c.064-.039.128-.074.183-.103-.037.107-.059.219-.065.332a.694.694 0 0 0 .15.482.164.164 0 0 0 .12.04c.107 0 .156-.09.21-.196.065-.13.125-.28.125-.28s-.074.407.127.407c.073 0 .147-.095.18-.143v.001l.005-.01.012-.018v-.002c.03-.051.095-.167.193-.36.126-.248.247-.559.247-.559.012.069.028.136.048.202.03.08.065.158.104.234l-.047.064c-.023.032-.048.066-.077.098a2.908 2.908 0 0 0-.234.294.08.08 0 0 0 .022.108.2.2 0 0 0 .122.02.562.562 0 0 0 .183-.042.616.616 0 0 0 .158-.083.354.354 0 0 0 .152-.312.629.629 0 0 0-.057-.22l.026-.038c.101-.152.193-.31.274-.473.012.068.028.135.048.202.025.069.054.136.09.2a.868.868 0 0 0-.268.344c-.057.166-.013.24.072.258a.254.254 0 0 0 .133-.027c.06-.02.118-.05.169-.087a.38.38 0 0 0 .186-.309.584.584 0 0 0-.042-.182.956.956 0 0 1 .485-.056c.435.05.52.322.504.436a.289.289 0 0 1-.138.196c-.03.019-.04.025-.037.039.003.02.018.02.044.016a.34.34 0 0 0 .237-.302c.014-.268-.241-.562-.694-.56v.001ZM.952 3.285c-.145.157-.345.217-.432.166C.427 3.398.463 3.166.64 3a2.3 2.3 0 0 1 .34-.253l.089-.053.01-.006.022-.014a.624.624 0 0 1-.15.612Zm1.05-.714c-.05.122-.155.436-.22.418-.054-.015-.089-.252-.01-.487.04-.113.097-.218.17-.313.079-.087.166-.117.187-.081-.02.16-.062.316-.127.463Zm.866.415c-.02.01-.04.017-.05.012-.006-.003.01-.017.01-.017s.108-.117.15-.17l.086-.109v.012c0 .14-.135.234-.196.272Zm.669-.153c-.016-.01-.013-.047.04-.162a.608.608 0 0 1 .148-.191.276.276 0 0 1-.188.354Z" fill="#CD6799"/></svg>