<svg width="5" height="5" fill="none" xmlns="http://www.w3.org/2000/svg"><path d="M2.918 2.484c-.091-.03-.222-.023-.394-.023h-.688v.898h.736c.115 0 .196-.012.242-.02a.581.581 0 0 0 .206-.078.397.397 0 0 0 .136-.152.473.473 0 0 0 .053-.227.39.39 0 0 0-.291-.397Zm-.094-.41a.38.38 0 0 0 .204-.136.39.39 0 0 0 .069-.237.435.435 0 0 0-.064-.236c-.043-.068-.104-.094-.184-.12-.08-.024-.216-.017-.41-.017h-.603v.781h.648c.158 0 .27-.014.34-.035ZM4.883.649A.65.65 0 0 0 4.233 0H.65A.65.65 0 0 0 0 .65v3.583c0 .36.29.65.65.65h3.583a.65.65 0 0 0 .65-.65V.65ZM3.498 3.232a.68.68 0 0 1-.197.25.83.83 0 0 1-.295.14c-.118.03-.263.05-.434.05H1.484V.977h1.071c.206 0 .371.023.495.078a.66.66 0 0 1 .398.604.61.61 0 0 1-.094.324.668.668 0 0 1-.283.246c.163.048.288.13.376.244.087.115.131.251.131.408a.785.785 0 0 1-.08.351Z" fill="#5B4282"/></svg>