<svg width="5" height="5" fill="none" xmlns="http://www.w3.org/2000/svg"><g clip-path="url(#a)"><path d="M.922 4.25.572.312h3.857L4.077 4.25l-1.58.438L.923 4.25Z" fill="#E44F26"/><path d="m2.5 4.353 1.277-.354.3-3.364H2.5v3.718Z" fill="#F1662A"/><path d="M2.5 2.095h-.64L1.818 1.6H2.5v-.483H1.289l.012.13.118 1.33H2.5v-.482ZM2.5 3.349h-.002l-.538-.144-.034-.386H1.44l.067.758.99.275H2.5v-.503Z" fill="#EBEBEB"/><path d="M2.498 2.095v.483h.595l-.056.626-.539.146v.502l.99-.274.008-.082.113-1.271.012-.13H2.498ZM2.498 1.117V1.6h1.167l.01-.108.022-.245.011-.13h-1.21Z" fill="#fff"/></g><defs><clipPath id="a"><path fill="#fff" d="M0 0h5v5H0z"/></clipPath></defs></svg>