<svg width="5" height="5" fill="none" xmlns="http://www.w3.org/2000/svg"><path d="M4.463 0H.537A.537.537 0 0 0 0 .537v3.926C0 4.759.24 5 .537 5h3.926C4.759 5 5 4.76 5 4.463V.537A.537.537 0 0 0 4.463 0Z" fill="#21759A"/><path fill-rule="evenodd" clip-rule="evenodd" d="M2.567 4.08c-.141 0-.184.008-.332-.02l-.177-.036c.021-.106.347-1.004.403-1.195.014-.036.057-.149.064-.177h.007c.007.028.078.212.092.255.007.028.021.056.028.085.106.261.205.572.304.834.021.057.043.12.064.17-.036.007-.057.021-.1.028-.12.028-.218.057-.353.057ZM2.426.737h.155c.113.007.234.02.361.056.163.043.177.057.311.113l.135.071c.212.127.417.304.558.51.043.063.128.197.156.268.127.318.162.431.162.806 0 .269-.099.601-.24.828a1.818 1.818 0 0 1-.926.777 1.953 1.953 0 0 1-.524.1H2.42a1.805 1.805 0 0 1-.594-.135l-.149-.07c-.078-.05-.092-.05-.198-.12a1.74 1.74 0 0 1-.686-1.005c-.056-.212-.056-.29-.056-.495 0-.142.028-.269.056-.382.035-.141.106-.318.184-.446.205-.346.545-.643.926-.777.177-.057.347-.092.524-.1ZM.919 2.567c0-.24.015-.41.106-.643a.142.142 0 0 1 .029-.057l.375 1.018c.056.177.127.347.183.517.036.085.064.17.1.254l.091.262c-.106-.021-.396-.255-.473-.354-.043-.056-.071-.07-.128-.162-.155-.227-.283-.53-.283-.835Zm2.978-.806.021.028c.092.184.163.439.163.644 0 .233-.007.34-.078.573-.028.063-.043.12-.078.184a1.537 1.537 0 0 1-.325.445l-.142.12a.757.757 0 0 1-.155.106c.014-.07.431-1.266.488-1.407.085-.22.113-.34.113-.601 0-.043-.007-.057-.007-.092Zm-.616-.17c0 .297.283.446.283.792 0 .156-.007.177-.05.333-.027.085-.049.162-.077.24l-.106.36c-.007.036-.028.093-.035.128-.022-.014-.064-.177-.078-.205l-.425-1.266a3.726 3.726 0 0 1-.07-.212.963.963 0 0 0 .148-.014c.071-.007.085-.014.085-.078 0-.028-.021-.057-.05-.057-.12 0-.219.015-.346.015h-.17c-.134 0-.24-.015-.367-.015-.015 0-.043.029-.043.071 0 .057.036.057.085.064.035 0 .12 0 .142.021l.219.594c.021.064.028.057.007.12l-.24.729c-.015.042-.078.219-.078.247-.022-.014-.022-.02-.029-.042l-.05-.163a1.863 1.863 0 0 1-.07-.212l-.148-.424c-.022-.078-.27-.778-.283-.856.035 0 .184-.007.212-.028.035-.036.035-.085 0-.106-.028-.029-.113-.015-.149-.007l-.417.007a1.65 1.65 0 0 1 .22-.27c.02-.02.042-.035.063-.056.042-.042.163-.127.22-.155.049-.029.098-.057.155-.085.488-.22 1.075-.191 1.52.113.057.035.17.106.198.156a.24.24 0 0 0-.19.077.252.252 0 0 0-.086.184Z" fill="#fff"/><path fill-rule="evenodd" clip-rule="evenodd" d="M4.264 2.56c0 .269-.099.601-.24.828a1.818 1.818 0 0 1-.926.777 1.953 1.953 0 0 1-.524.1H2.42a1.805 1.805 0 0 1-.594-.135l-.149-.07c-.078-.05-.092-.05-.198-.12-.014-.008-.028-.022-.042-.03L2.525 5h1.938L5 4.463v-1.96l-1.23-1.23a1.655 1.655 0 0 1 .332.48c.127.32.162.44.162.807Z" fill="#1B5F7D"/><path fill-rule="evenodd" clip-rule="evenodd" d="M2.956 3.826c-.099-.262-.198-.573-.304-.835l-.028-.084c-.014-.043-.085-.227-.085-.255h-.021c0 .028-.043.141-.057.177-.056.19-.382 1.089-.403 1.195l.177.035c.148.029.19.022.332.022.135 0 .234-.029.354-.057.042-.007.063-.021.099-.028-.021-.05-.043-.113-.064-.17ZM1.612 3.402c-.056-.17-.127-.34-.183-.517l-.375-1.018c-.014.014-.021.035-.029.057a1.56 1.56 0 0 0-.106.643c0 .304.128.608.283.835.057.092.085.106.128.162.077.1.367.333.473.354l-.099-.262a3.672 3.672 0 0 0-.092-.254Z" fill="#1B5F7D"/><path fill-rule="evenodd" clip-rule="evenodd" d="m1.818 2.617.148.424.07.212.05.163c.007.021.007.028.029.042 0-.028.063-.205.077-.247l.24-.729c.022-.063.015-.056-.006-.12l-.22-.594c-.02-.021-.106-.021-.14-.021-.05-.007-.086-.007-.086-.064 0-.042.029-.07.043-.07.127 0 .233.014.367.014h.17c.127 0 .226-.015.347-.015.028 0 .05.029.05.057 0 .064-.015.07-.086.078a.963.963 0 0 1-.148.014c.007.028.056.177.07.212l.425 1.266c.014.028.056.191.078.205.007-.035.028-.092.035-.127l.106-.36.078-.241c.042-.156.05-.177.05-.333 0-.346-.284-.495-.284-.792 0-.078.043-.148.085-.184a.24.24 0 0 1 .191-.077c-.028-.05-.141-.12-.198-.156C2.914.87 2.327.842 1.84 1.061c-.057.028-.106.056-.156.085a1.226 1.226 0 0 0-.219.155c-.021.021-.042.036-.064.057a1.649 1.649 0 0 0-.219.269l.417-.007c.036-.008.12-.022.149.007.035.02.035.07 0 .106-.028.02-.177.028-.212.028.014.078.261.778.283.856ZM3.79 2.454a43.64 43.64 0 0 0-.487 1.407.757.757 0 0 0 .155-.106l.142-.12c.141-.141.24-.269.325-.445.035-.064.05-.12.078-.184.07-.234.078-.34.078-.573 0-.205-.071-.46-.163-.644l-.021-.028c0 .035.007.05.007.092 0 .262-.028.382-.113.601Z" fill="#1B5F7D"/></svg>