<svg width="6" height="5" viewBox="0 0 6 5" fill="none" xmlns="http://www.w3.org/2000/svg">
<path d="M4.69352 3.86968C4.41557 3.86208 4.20322 3.88795 4.02158 3.96446C3.96996 3.98626 3.88772 3.98681 3.87936 4.05142C3.90765 4.08126 3.91205 4.12562 3.93462 4.16217C3.97799 4.23229 4.0512 4.3263 4.11647 4.37551C4.1877 4.42934 4.26123 4.48702 4.33785 4.53369C4.4738 4.6167 4.62571 4.66403 4.75682 4.74703C4.83399 4.79613 4.9106 4.85777 4.98601 4.91315C5.02333 4.94034 5.04821 4.98294 5.09675 5V4.99218C5.07132 4.95982 5.06472 4.91535 5.04138 4.88144L4.93856 4.77863C4.83806 4.64521 4.71059 4.52819 4.57485 4.43088C4.46675 4.35327 4.22479 4.24836 4.17966 4.12254L4.17174 4.11472C4.24835 4.10603 4.33818 4.07829 4.40885 4.05935C4.52774 4.02743 4.63397 4.03568 4.75671 4.00398L4.92271 3.95642V3.92494C4.86074 3.86131 4.81637 3.77699 4.74878 3.71942C4.57188 3.56872 4.37858 3.41812 4.17966 3.29241C4.06936 3.22284 3.93297 3.1776 3.81595 3.11859C3.77676 3.09867 3.70763 3.08843 3.68154 3.0553C3.62 2.97703 3.58665 2.87784 3.5392 2.78659C3.44013 2.59559 3.3426 2.38688 3.25464 2.18576C3.19476 2.04871 3.15557 1.91353 3.08082 1.79057C2.72185 1.20042 2.33546 0.844193 1.73695 0.494133C1.60958 0.419607 1.45624 0.390325 1.29431 0.351907L1.03341 0.336055C0.980464 0.313929 0.925203 0.248981 0.875336 0.217497C0.676969 0.0922244 0.16839 -0.180228 0.0215414 0.178088C-0.0711475 0.404196 0.160245 0.6248 0.242916 0.739395C0.300929 0.819754 0.375345 0.909801 0.416845 1.00018C0.444146 1.05962 0.448769 1.11918 0.472216 1.18203C0.529569 1.33681 0.579656 1.50534 0.653962 1.64834C0.691499 1.72077 0.733 1.79706 0.780446 1.86179C0.809507 1.90142 0.859485 1.91903 0.8673 1.98035C0.818534 2.0486 0.815672 2.15472 0.788261 2.24113C0.66475 2.63071 0.711314 3.11496 0.891078 3.40326C0.946229 3.49188 1.07613 3.68166 1.25468 3.60879C1.41088 3.54516 1.3761 3.348 1.42079 3.17396C1.43092 3.13466 1.42464 3.1056 1.44446 3.07918V3.08711L1.58679 3.37167C1.69214 3.54131 1.87895 3.71843 2.03736 3.83809C2.11948 3.90006 2.18421 4.00739 2.29033 4.04361V4.03557H2.28251C2.26182 4.00354 2.22978 3.99033 2.20336 3.96446C2.1415 3.90381 2.0727 3.82851 2.02162 3.75894C1.87752 3.56343 1.75027 3.34932 1.63424 3.12652C1.57887 3.02018 1.53076 2.90283 1.48409 2.79451C1.46603 2.75279 1.46626 2.6896 1.42883 2.66814C1.37753 2.7474 1.30234 2.81157 1.26271 2.90525C1.19953 3.05497 1.19138 3.23759 1.16793 3.42693L1.15208 3.43475C1.04189 3.40822 1.00325 3.29483 0.962301 3.19763C0.858824 2.95182 0.839559 2.55585 0.930707 2.27283C0.954265 2.19952 1.06071 1.9689 1.01756 1.9012C0.996976 1.83372 0.929056 1.79475 0.891188 1.74301C0.844183 1.67927 0.797178 1.59539 0.764704 1.52164C0.679941 1.32998 0.640422 1.11477 0.551365 0.92092C0.508654 0.828231 0.43666 0.734551 0.377436 0.65221C0.311937 0.560842 0.238513 0.493693 0.187655 0.383391C0.169602 0.344202 0.145054 0.281344 0.171804 0.241055C0.18028 0.213864 0.192499 0.202526 0.219359 0.193609C0.265153 0.158273 0.392848 0.205388 0.440623 0.225203C0.567438 0.277932 0.673226 0.328019 0.780666 0.399132C0.832184 0.433368 0.884253 0.499417 0.946669 0.51769H1.01778C1.12907 0.543229 1.2538 0.525506 1.35771 0.5571C1.54155 0.613021 1.70623 0.699875 1.85572 0.794326C2.31135 1.08208 2.68376 1.49158 2.93871 1.98013C2.97966 2.05883 2.99749 2.1338 3.03349 2.21724C3.10636 2.38545 3.19817 2.55861 3.27061 2.72318C3.34293 2.88731 3.41349 3.05298 3.51576 3.18959C3.56948 3.26137 3.77709 3.2999 3.87143 3.33975C3.93759 3.36771 4.04591 3.39688 4.10855 3.43453C4.22821 3.50674 4.34423 3.59271 4.45641 3.67175C4.51244 3.7116 4.68494 3.79824 4.69352 3.86968V3.86968ZM1.16001 0.857953C1.1021 0.856852 1.06104 0.864338 1.01767 0.873805V0.88162H1.0256C1.05323 0.938533 1.10199 0.97508 1.13623 1.02396L1.21538 1.18996L1.22319 1.18214C1.27218 1.14769 1.29453 1.09254 1.29431 1.00821C1.2746 0.987519 1.27174 0.96165 1.25479 0.937102C1.23233 0.904077 1.18852 0.885583 1.16001 0.857953V0.857953Z" fill="#00618A"/>
</svg>
