<svg width="5" height="5" fill="none" xmlns="http://www.w3.org/2000/svg"><path d="M5 0H0v5h5V0Z" fill="#F5DE19"/><path d="M3.359 3.906a.512.512 0 0 0 .464.286c.195 0 .32-.097.32-.232 0-.16-.129-.218-.343-.312l-.117-.05c-.34-.145-.565-.326-.565-.708 0-.353.268-.621.688-.621a.694.694 0 0 1 .668.376l-.367.235a.32.32 0 0 0-.301-.201.204.204 0 0 0-.225.201c0 .14.087.198.289.286l.117.05c.4.171.625.346.625.738 0 .423-.332.655-.778.655a.903.903 0 0 1-.857-.48l.382-.223Zm-1.66.041c.074.13.14.242.302.242.155 0 .252-.06.252-.296V2.296h.47V3.9c0 .486-.286.708-.702.708a.73.73 0 0 1-.705-.43l.383-.231Z" fill="#000"/></svg>