<svg width="7" height="7" fill="none" xmlns="http://www.w3.org/2000/svg"><path d="m5.379 6.534.02-.002c.589-.07.991-.628.872-1.208l-.22-1.076a1.056 1.056 0 0 0-1.035-.844H3.73h.036-1.285c-.501 0-.934.353-1.034.844l-.221 1.076c-.12.58.283 1.138.871 1.208l.021.002h3.26Z" fill="#F1F1F1"/><path d="M5.38 6.542H2.12l-.023-.002a1.022 1.022 0 0 1-.878-1.217l.221-1.077c.102-.492.54-.85 1.043-.85h2.534c.503 0 .941.358 1.042.85l.22 1.077a1.022 1.022 0 0 1-.877 1.217l-.023.002Zm-2.898-3.13c-.495 0-.927.353-1.026.838l-.221 1.076a1.006 1.006 0 0 0 .864 1.198l.021.003H5.38l.02-.003a1.004 1.004 0 0 0 .865-1.198L6.043 4.25a1.051 1.051 0 0 0-1.027-.837H2.482Z" fill="#000"/><path d="m5.4 6.532-.02.003H2.12l-.022-.003a1.011 1.011 0 0 1-.812-.611c.149.134.34.225.556.251l.02.003h3.26l.021-.003c.588-.07.99-.627.872-1.207l-.221-1.077a1.052 1.052 0 0 0-.065-.207c.16.146.275.342.322.567l.22 1.076a1.012 1.012 0 0 1-.87 1.208Z" fill="#000" opacity=".3"/><path d="M5.537 3.542a1.053 1.053 0 0 0-.387-.074H2.617c-.502 0-.934.353-1.035.844l-.22 1.077c-.092.442.12.871.488 1.08a1.012 1.012 0 0 1-.623-1.145l.22-1.076c.101-.491.534-.844 1.035-.844h2.534c.188 0 .366.05.52.138Z" fill="#fff" opacity=".55"/><path d="M5.379 6.587H2.113l-.02-.003a1.067 1.067 0 0 1-.917-1.27l.22-1.077a1.113 1.113 0 0 1 1.086-.885h2.534c.524 0 .98.372 1.086.885l.22 1.077a1.067 1.067 0 0 1-.916 1.27l-.02.003h-.007Zm-3.257-.105h3.254l.018-.002a.962.962 0 0 0 .826-1.145L5.999 4.26a1.007 1.007 0 0 0-.983-.802H2.482c-.474 0-.888.337-.983.802l-.221 1.076a.961.961 0 0 0 .826 1.145l.018.002Z" fill="#000"/><path d="m5.624 2.528-.01.037-.008.027a.128.128 0 0 1-.003.01l-.007.023-.01.028-.003.013a1.463 1.463 0 0 1-.031.084l-.018.043a1.215 1.215 0 0 1-.038.084l-.002.005a.793.793 0 0 1-.02.037v.001a1.66 1.66 0 0 1-.049.089l-.019.033-.025.04a2.081 2.081 0 0 1-.043.066l-.02.028-.017.023-.026.035a2.87 2.87 0 0 1-.026.033l-.015.018-.01.012a1.033 1.033 0 0 1-.067.077l-.025.027-.018.02a2.094 2.094 0 0 1-.065.065l-.031.03a2.838 2.838 0 0 1-.1.089l-.017.013-.032.026c-.038.03-.077.06-.117.088-.001 0-.002 0-.003.002a1.754 1.754 0 0 1-.686.29 1.776 1.776 0 0 1-1.352-.292l-.038-.027-.004-.003-.037-.028a1.574 1.574 0 0 1-.038-.03l-.038-.03-.037-.031-.036-.032-.036-.033-.035-.033c-.012-.01-.023-.022-.034-.033l-.034-.034-.033-.036a2.985 2.985 0 0 1-.122-.146l-.026-.034-.004-.005-.017-.024a2.074 2.074 0 0 1-.107-.167c-.01-.015-.018-.032-.028-.048l-.019-.037a1.035 1.035 0 0 1-.021-.043 1.562 1.562 0 0 1-.038-.082l-.001-.004-.017-.04a1.344 1.344 0 0 1-.032-.088l-.011-.033-.008-.026a.163.163 0 0 1-.004-.012l-.007-.026a1.325 1.325 0 0 1-.01-.038c-.132-.925.71-1.95 1.55-2.39a.736.736 0 0 1 .74.031c.822.47 1.623 1.454 1.495 2.358Z" fill="#F1F1F1"/><path d="m4.055 4.022.07-.02c.177-.054.346-.135.502-.245 0 0 .002 0 .002-.002a2.403 2.403 0 0 0 .15-.114l.016-.013a2.507 2.507 0 0 0 .132-.119l.038-.038.027-.027.018-.02.025-.026a2.674 2.674 0 0 0 .077-.09l.014-.017a2.307 2.307 0 0 0 .052-.068l.018-.024a2.075 2.075 0 0 0 .088-.133c-.001 0 0 0 0 0l.02-.034.026-.047a1.66 1.66 0 0 0 .022-.041v-.001a.823.823 0 0 0 .02-.038c0-.001 0-.003.002-.005l.019-.04a1 1 0 0 0 .019-.043l.017-.044.017-.043.014-.04.005-.013a.983.983 0 0 0 .009-.029l.007-.022a3.119 3.119 0 0 0 .011-.038l.01-.037C5.627 1.66 4.848.688 4.037.21c.57.518 1.001 1.245.905 1.927l-.01.036a3.119 3.119 0 0 1-.01.038l-.008.023a.74.74 0 0 1-.009.028l-.004.013a1.51 1.51 0 0 1-.031.084l-.018.043-.019.043a1.127 1.127 0 0 1-.019.04l-.002.005a1.66 1.66 0 0 1-.068.127l-.02.033v.001l-.025.04a2.075 2.075 0 0 1-.043.065l-.02.028-.017.024a79.26 79.26 0 0 0-.067.086l-.01.012a1.033 1.033 0 0 1-.067.077l-.024.027-.019.02a2.03 2.03 0 0 1-.065.065l-.031.03-.005.004-.033.03a2.04 2.04 0 0 1-.063.054l-.015.014a2.722 2.722 0 0 1-.15.114l-.003.001a1.755 1.755 0 0 1-.686.29l.01-.001c-.039.01-.077.018-.115.026a1.775 1.775 0 0 1-.692-.006l-.008-.006.038.03.037.027.004.003.038.027a1.764 1.764 0 0 0 1.36.29Z" fill="#000" opacity=".4"/><path d="M4.43.376a2.955 2.955 0 0 0-.195-.122.736.736 0 0 0-.74-.031c-.84.439-1.682 1.465-1.55 2.39l.01.038.007.025a.8.8 0 0 0 .012.038l.01.033a1.001 1.001 0 0 0 .033.088l.017.04.001.004a1.345 1.345 0 0 0 .04.088l.02.037.019.037c.009.016.017.033.027.049l.02.034.03.047a1.004 1.004 0 0 0 .057.085.41.41 0 0 0 .017.024l.004.005.026.035c.021.028.044.056.067.083l.024.028.031.034.033.036.034.034a1.696 1.696 0 0 0 .069.067l.036.032.036.032.037.031.038.03.038.03.035.027-.043-.03-.038-.027-.004-.003-.037-.028a1.55 1.55 0 0 1-.039-.03l-.037-.03-.038-.031-.036-.032-.036-.033a105.59 105.59 0 0 0-.069-.066 3.317 3.317 0 0 1-.033-.034l-.033-.036-.032-.035a2.804 2.804 0 0 1-.091-.11l-.026-.036a1.501 1.501 0 0 1-.108-.161l-.02-.034-.027-.048-.02-.037a1.019 1.019 0 0 1-.02-.043 1.578 1.578 0 0 1-.038-.082l-.002-.004-.017-.04a1.402 1.402 0 0 1-.032-.088l-.01-.033a.826.826 0 0 1-.009-.027l-.003-.011-.008-.026a1.325 1.325 0 0 1-.01-.038c-.131-.925.71-1.95 1.55-2.39a.736.736 0 0 1 .74.03v.001c.096.055.19.116.284.184Z" fill="#fff" opacity=".55"/><path d="M3.731 4.107a1.82 1.82 0 0 1-1.05-.332l-.039-.028-.002-.002-.002-.001-.038-.029a2.816 2.816 0 0 1-.04-.03l-.036-.03a1.733 1.733 0 0 1-.076-.066l-.002-.001-.035-.032a136.922 136.922 0 0 1-.07-.069 1.696 1.696 0 0 1-.034-.035l-.034-.035-.032-.037a2.187 2.187 0 0 1-.093-.113l-.005-.007a47.942 47.942 0 0 1-.02-.028l-.004-.004a1.27 1.27 0 0 1-.057-.082c-.007-.01-.015-.021-.021-.032l-.03-.048-.006-.01-.014-.024a2.375 2.375 0 0 1-.027-.048l-.001-.002a2.225 2.225 0 0 1-.02-.038l-.019-.038-.004-.008a1.616 1.616 0 0 1-.09-.22l-.01-.033-.008-.027a.324.324 0 0 1-.004-.013L1.8 2.579l-.01-.039a.038.038 0 0 1-.001-.005c-.08-.56.184-1.079.42-1.415.297-.425.719-.8 1.158-1.03a.788.788 0 0 1 .732 0c.438.23.86.605 1.158 1.03.235.336.499.854.42 1.415l-.001.005-.01.038-.01.031a.076.076 0 0 1-.002.008l-.005.017-.002.006a.69.69 0 0 1-.01.027v.002l-.004.013a1.657 1.657 0 0 1-.09.216l-.002.007a1.41 1.41 0 0 1-.07.13l-.019.033-.026.041-.044.067-.02.029-.018.024-.027.035-.027.034-.015.02-.027.033a2.913 2.913 0 0 1-.076.084l-.02.02-.027.028-.039.039-.032.03-.006.006a1.496 1.496 0 0 1-.097.085l-.016.013a2.14 2.14 0 0 1-.155.118 1.814 1.814 0 0 1-1.049.333Zm-1.025-.444.036.026a1.721 1.721 0 0 0 1.978.001l.002-.001.115-.086.032-.026.015-.013.061-.053.032-.03c.001 0 .002 0 .003-.002h.001l.002-.002.03-.03.038-.037.026-.025.018-.02.024-.026a2.5 2.5 0 0 0 .048-.055l.027-.032a2.757 2.757 0 0 0 .065-.084l.017-.023.019-.027a2.412 2.412 0 0 0 .066-.102 1.659 1.659 0 0 0 .068-.121l.018-.036.003-.006.018-.039a1.502 1.502 0 0 0 .065-.164l.005-.015.008-.025.002-.007.005-.014v-.004a.03.03 0 0 0 .002-.004l.009-.03.009-.033c.057-.41-.086-.884-.403-1.337A3.274 3.274 0 0 0 4.05.184a.684.684 0 0 0-.635 0 3.271 3.271 0 0 0-1.12.997c-.317.453-.46.927-.403 1.337l.01.034a.366.366 0 0 0 .006.025l.004.011.008.026.01.032.016.042a.89.89 0 0 0 .032.083l.002.004c.01.025.022.05.036.08l.001.002.002.003.018.036.019.037v.002c.01.015.018.03.026.045l.014.023.006.01.028.046.02.03a1.694 1.694 0 0 0 .053.076l.002.002h-.001a.02.02 0 0 1 .003.004l.02.026.006.007a2.558 2.558 0 0 0 .119.143l.033.034a1.476 1.476 0 0 0 .1.099l.033.03.002.002.035.031.036.03.035.03.002.001.038.03.035.026.005.003Zm2.275-.185Z" fill="#000"/><path d="m5.162 2.572-.01.03c-.098.25-.289.383-.404.232l.069-.339.047-.23c.18-.123.421-.068.298.307Z" fill="#D8976A"/><path d="M4.863 2.904c-.045 0-.087-.023-.12-.066l-.002-.002.117-.575h.002c.098-.068.21-.08.276-.03.043.033.105.12.032.343l-.01.03c-.066.168-.173.284-.274.299l-.02.001Zm-.108-.071c.035.044.079.064.127.057.097-.014.2-.127.264-.29l.01-.03c.053-.16.043-.277-.027-.33-.062-.045-.166-.034-.26.029l-.114.564Z" fill="#000"/><path d="m5.162 2.572-.01.03c-.098.25-.289.383-.404.232l.069-.339.026-.002c.07.22.172.24.305.059l.014.02Z" fill="#000" opacity=".3"/><path d="M4.864 2.94a.187.187 0 0 1-.15-.08.042.042 0 0 1-.007-.034l.116-.57a.043.043 0 0 1 .017-.026c.113-.077.241-.087.32-.026.053.04.127.149.032.413-.071.182-.187.305-.302.321a.178.178 0 0 1-.026.002Zm-.07-.117a.094.094 0 0 0 .084.032c.082-.012.177-.12.235-.268.056-.155.054-.27-.005-.316-.046-.036-.13-.028-.206.02l-.109.532Z" fill="#000"/><path d="m2.219 2.572.01.03c.097.25.288.383.404.232l-.07-.339-.046-.23c-.18-.123-.421-.068-.298.307Z" fill="#D8976A"/><path d="m2.517 2.906-.02-.001c-.103-.015-.21-.132-.276-.3a.9.9 0 0 1-.01-.03c-.074-.225-.011-.314.032-.347.067-.05.18-.039.279.03l.003.001.118.577-.003.003c-.034.045-.076.067-.123.067Zm-.29-.337.01.03c.063.162.166.275.262.288.048.007.09-.012.125-.055l-.115-.562c-.092-.062-.194-.073-.255-.028-.07.053-.079.169-.027.327Z" fill="#000"/><path d="M2.477 2.894c-.09-.03-.181-.138-.24-.287l-.01-.03c-.122-.376.118-.431.299-.308v.005c-.163-.062-.327.023-.221.347l.01.03c.041.106.1.192.162.243Z" fill="#fff" opacity=".55"/><path d="M2.517 2.94a.17.17 0 0 1-.025-.002c-.116-.016-.231-.14-.302-.32-.096-.265-.022-.374.031-.414.08-.061.208-.05.32.026a.04.04 0 0 1 .018.027l.116.569a.042.042 0 0 1-.008.034.188.188 0 0 1-.15.08Zm-.171-.692a.117.117 0 0 0-.073.022c-.06.046-.06.162-.004.318.058.147.152.255.235.266a.093.093 0 0 0 .084-.032l-.108-.531a.268.268 0 0 0-.134-.043Z" fill="#000"/><path d="M4.838 2.504v.195c0 .335-.16.652-.436.842l-.012.008a1.253 1.253 0 0 1-1.394 0l-.011-.008a1.02 1.02 0 0 1-.437-.843v-.195l.002-.034c.01-.178.058-.976.065-.996.25-.675 2.758-.51 2.223 1.03Z" fill="#D8976A"/><path d="M3.693 3.77a1.26 1.26 0 0 1-.702-.213l-.01-.008a1.028 1.028 0 0 1-.442-.85v-.195l.002-.036c.017-.293.058-.978.066-.998.066-.177.289-.309.612-.36.312-.05.676-.017.972.09.296.106.953.446.656 1.305v.193c0 .343-.164.66-.44.85l-.005.003-.007.005a1.257 1.257 0 0 1-.702.215Zm-.178-2.665c-.1 0-.2.007-.293.022-.317.05-.535.178-.599.349a40.093 40.093 0 0 0-.067 1.028v.194c0 .338.162.65.433.836l.012.008c.42.281.963.281 1.384 0l.007-.005.005-.003a1.01 1.01 0 0 0 .433-.836v-.197c.293-.845-.354-1.18-.645-1.285a2.038 2.038 0 0 0-.67-.111Z" fill="#000"/><path d="M4.838 2.504v.195c0 .335-.16.652-.436.842l-.012.008a1.253 1.253 0 0 1-1.394 0l-.011-.008c-.01-.006-.018-.012-.026-.019.396.193.871.164 1.244-.086l.012-.007a1.02 1.02 0 0 0 .436-.843l.017-.245c.181-.523-.004-.837-.316-1.064.424.21.701.607.486 1.227Z" fill="#000" opacity=".3"/><path d="M4.838 2.504v.079c-.126-.186-.15-.692-.15-.692-.11.12-.728.257-1.162.027-.024-.013-.05.012-.038.036l.008.014c-.058.035-.326.001-.472-.084a.067.067 0 0 0-.1.049c-.032.208-.136.353-.358.57L2.55 2.47c.01-.178.058-.976.065-.996.25-.675 2.758-.51 2.223 1.03Z" fill="#000" opacity=".3"/><path d="M4.168 3.667c-.38.156-.822.117-1.172-.118l-.012-.008a1.02 1.02 0 0 1-.437-.842v-.195s.059-1.008.068-1.03c.052-.143.204-.247.407-.31-.152.064-.264.156-.308.273-.009.023-.067 1.031-.067 1.031v.195c0 .335.16.653.437.843.004.002.008.004.012.008.273.247.716.266 1.072.153Z" fill="#fff" opacity=".55"/><path d="M3.693 3.804c-.25 0-.502-.073-.72-.22l-.013-.008a1.06 1.06 0 0 1-.455-.877v-.197c.06-1.014.067-1.036.07-1.044.154-.415 1.024-.506 1.627-.29.288.104.505.268.63.475.146.242.162.535.048.868V2.7c0 .354-.17.682-.455.877l-.012.008a1.29 1.29 0 0 1-.72.22ZM2.59 2.505V2.7c0 .326.156.628.418.808l.011.007c.41.275.938.275 1.348 0l.01-.007a.977.977 0 0 0 .42-.808v-.195l.001-.014c.284-.817-.342-1.14-.624-1.242-.612-.22-1.39-.098-1.518.237-.008.054-.044.636-.066 1.02Zm.065-1.018Z" fill="#000"/><path d="M4.825 1.06c.317.404.277 1.107.011 1.475-.204-.112-.217-.644-.217-.644-.483.131-.97.051-1.413-.33-.01.15.115.289.115.289a.484.484 0 0 1-.467-.334c-.056.506-.06.619-.306.988-.246-.527-.292-1.177.119-1.372-.572-.197-.361-.595.13-.241-.24-.347.064-.48.127-.099.356-.65 1.92-.421 2.131.317l-.229-.05Z" fill="#383838"/><path d="m4.838 2.547-.007-.004c-.191-.106-.218-.56-.22-.64-.513.136-.983.027-1.397-.323a.469.469 0 0 0 .114.264l.014.015h-.02a.595.595 0 0 1-.156-.025.478.478 0 0 1-.307-.284l-.003.028c-.05.453-.063.575-.3.93l-.01.013-.006-.014c-.248-.53-.289-1.167.104-1.374-.23-.084-.321-.197-.329-.276a.096.096 0 0 1 .05-.096c.068-.039.207-.032.401.097-.08-.133-.079-.23-.05-.273A.068.068 0 0 1 2.79.554c.05.01.11.072.139.213.196-.325.668-.397 1.05-.355.455.051.967.285 1.085.694l.004.014-.221-.048c.307.415.254 1.112-.004 1.468l-.005.007Zm-.211-.667v.011c0 .005.016.516.206.633.254-.358.302-1.055-.014-1.46l-.011-.013h.02l.214.046C4.92.705 4.421.48 3.976.43c-.384-.043-.86.031-1.044.366L2.92.82 2.915.794C2.891.645 2.83.58 2.786.572a.05.05 0 0 0-.055.023c-.03.044-.027.146.074.291l.029.042-.041-.03C2.586.75 2.438.74 2.373.777a.079.079 0 0 0-.04.08c.006.072.099.185.336.267l.02.007-.019.01c-.399.189-.363.817-.12 1.345.226-.342.24-.465.289-.91l.01-.095.013.032c.065.163.166.262.308.305.041.012.085.02.132.023-.032-.041-.113-.156-.105-.28v-.018l.014.012c.416.358.889.469 1.405.328l.011-.003Z" fill="#000"/><path d="M2.795 1.428c.021.04.04.086.053.14-.051.463-.063.58-.3.936a2.195 2.195 0 0 1-.076-.183c.195-.302.218-.473.263-.881.004-.032.046-.04.06-.012Z" fill="#000" opacity=".3"/><path d="M2.705.831c-.31-.131-.422.096-.12.27-.435-.19-.28-.499.12-.27ZM2.657 1.137c.04.018.048.069.015.096-.28.232-.27.755-.085 1.21-.012.02-.025.04-.04.061-.244-.523-.29-1.167.11-1.367ZM2.778.885c-.164-.252-.015-.397.084-.28-.055.007-.087.092-.026.226.015.036-.023.073-.058.054ZM4.744.73a2.443 2.443 0 0 0-.957-.21c-.05.097-.22.092-.292.023-.184.033-.34.103-.437.22-.028.033-.083.03-.104-.007L2.95.75C3.255.36 4.284.329 4.744.73Z" fill="#fff" opacity=".55"/><path d="M4.836 2.578a.042.042 0 0 1-.02-.005c-.187-.103-.228-.482-.237-.628a1.49 1.49 0 0 1-1.318-.284.5.5 0 0 0 .092.161c.01.013.014.03.006.046a.042.042 0 0 1-.038.025H3.32a.515.515 0 0 1-.44-.233c-.044.397-.07.527-.297.868a.042.042 0 0 1-.038.018.042.042 0 0 1-.035-.024c-.242-.518-.289-1.136.06-1.381-.2-.087-.28-.198-.288-.28a.129.129 0 0 1 .066-.128c.064-.036.181-.04.339.04C2.652.68 2.66.609 2.688.568a.102.102 0 0 1 .109-.044c.062.013.113.073.145.167.223-.287.672-.35 1.04-.31.466.052.991.294 1.113.718a.042.042 0 0 1-.05.053l-.125-.027c.114.187.175.427.171.688-.004.287-.084.56-.221.749a.043.043 0 0 1-.034.017Zm-.217-.729a.042.042 0 0 1 .042.041c.003.131.04.471.165.586.23-.356.266-1.008-.034-1.39a.042.042 0 0 1-.002-.049.042.042 0 0 1 .044-.019l.156.034C4.844.708 4.385.509 3.973.464c-.47-.053-.867.085-1.011.349a.042.042 0 0 1-.044.021A.042.042 0 0 1 2.883.8C2.86.658 2.805.61 2.78.605c-.006-.002-.014-.002-.02.009-.018.026-.025.112.073.253a.042.042 0 0 1-.06.058c-.18-.13-.322-.153-.382-.12a.045.045 0 0 0-.025.048c.007.068.107.168.315.24a.042.042 0 0 1 .005.077c-.221.105-.275.343-.282.525a1.77 1.77 0 0 0 .152.721c.19-.296.203-.418.25-.843l.007-.061a.042.042 0 0 1 .081-.011c.068.17.18.268.34.297a.427.427 0 0 1-.07-.24.042.042 0 0 1 .026-.036.043.043 0 0 1 .044.007c.407.35.87.459 1.374.321a.047.047 0 0 1 .01-.001Z" fill="#000"/><path d="M4.618 1.933a.042.042 0 0 1-.011-.083c.053-.014.106-.03.158-.05a.042.042 0 0 1 .054.025.042.042 0 0 1-.025.054 1.987 1.987 0 0 1-.176.054Z" fill="#000"/><path d="M4.836 2.535c-.204-.112-.218-.644-.218-.644-.482.131-.97.051-1.413-.33-.009.15.116.289.116.289a.586.586 0 0 1-.153-.024c-.231-.38-.133-.47.199-.353.92.297 1.591.344 1.458-.414.317.405.277 1.108.01 1.476Z" fill="#000" opacity=".3"/><path d="M4.602 1.411c0 .064-.125.116-.28.116-.154 0-.279-.052-.279-.116s.125-.065.28-.065c.154 0 .279.001.279.065Z" fill="#FEFEFE" opacity=".2"/><path d="M3.841 3.284s-.06.038-.218.038c-.034.003-.132-.003-.256-.116 0 0 .057.165.252.165 0 0 .111.01.222-.087ZM2.946 2.552a.19.19 0 0 1 .084-.103.253.253 0 0 1 .265.002c.038.024.07.059.085.1a.945.945 0 0 0-.115-.033.526.526 0 0 0-.207-.002.713.713 0 0 0-.112.036ZM4.457 2.552a.73.73 0 0 0-.113-.036.473.473 0 0 0-.207.002.98.98 0 0 0-.114.034.2.2 0 0 1 .085-.102.254.254 0 0 1 .265-.001.19.19 0 0 1 .084.103ZM3.205 3c.08 0 .145-.086.145-.191 0-.106-.065-.191-.145-.191-.08 0-.145.085-.145.19 0 .106.065.192.145.192Z" fill="#000"/><path d="M3.242 2.829c.025 0 .044-.029.044-.065 0-.035-.02-.064-.044-.064-.024 0-.044.029-.044.064 0 .036.02.065.044.065Z" fill="#fff"/><path d="M3.242 2.837c-.029 0-.052-.032-.052-.073 0-.04.023-.073.052-.073.03 0 .053.032.053.073 0 .041-.023.073-.053.073Zm0-.128c-.019 0-.035.025-.035.055s.017.056.035.056c.02 0 .035-.025.035-.055s-.016-.056-.035-.056ZM4.208 3c.08 0 .145-.086.145-.191 0-.106-.065-.191-.145-.191-.08 0-.146.085-.146.19 0 .106.065.192.146.192Z" fill="#000"/><path d="M4.17 2.829c.025 0 .044-.029.044-.065 0-.035-.02-.064-.044-.064-.024 0-.044.029-.044.064 0 .036.02.065.044.065Z" fill="#fff"/><path d="M4.17 2.837c-.029 0-.052-.032-.052-.073 0-.04.023-.073.053-.073.029 0 .052.032.052.073 0 .041-.023.073-.052.073Zm0-.128c-.018 0-.034.025-.034.055s.016.056.035.056c.018 0 .034-.025.034-.055s-.015-.056-.034-.056Z" fill="#000"/><mask id="b" style="mask-type:alpha" maskUnits="userSpaceOnUse" x="0" y="2" width="7" height="5"><path d="M5.453 6.618H2.086L.932 2.298l5.664.05-1.143 4.27Z" fill="url(#a)"/></mask><g mask="url(#b)"><path d="M5.64 6.514a.49.49 0 0 1-.148.274.404.404 0 0 1-.272.108H2.317c-.204 0-.38-.16-.421-.383h3.745Z" fill="#C6D3E3"/><path d="M5.22 6.905H2.316c-.208 0-.388-.164-.429-.39l-.002-.01H5.65l-.002.01a.5.5 0 0 1-.152.28.41.41 0 0 1-.277.11Zm-3.315-.383c.044.212.215.365.412.365h2.902a.398.398 0 0 0 .267-.105.479.479 0 0 0 .144-.26H1.905Z" fill="#000"/><path d="M5.22 6.949H2.316c-.226 0-.423-.179-.468-.425a.057.057 0 0 1 .01-.043.046.046 0 0 1 .037-.02H5.64c.014 0 .027.007.036.02a.056.056 0 0 1 .01.043c-.045.246-.242.425-.468.425Zm-3.262-.383a.388.388 0 0 0 .359.277h2.902a.388.388 0 0 0 .359-.277h-3.62Z" fill="#000"/><path d="M5.64 6.514a.49.49 0 0 1-.148.274.404.404 0 0 1-.273.108H3.424c.295-.016.557-.106.782-.278 0 0 .015-.042.05-.104H5.64Z" fill="#000" opacity=".3"/><path d="m5.64 4.493-.152 1.918c-.01.117-.098.207-.204.207H2.252c-.106 0-.194-.09-.204-.207l-.151-1.918c-.015-.188.119-.35.289-.35H5.35a.27.27 0 0 1 .152.047c.09.062.147.177.137.303Z" fill="#C6D3E3"/><path d="M5.285 6.627H2.25c-.11 0-.201-.093-.21-.215l-.152-1.918a.356.356 0 0 1 .077-.253.287.287 0 0 1 .22-.107H5.35c.055 0 .109.016.155.048a.342.342 0 0 1 .142.312l-.152 1.918c-.01.122-.1.215-.21.215Zm-3.1-2.476a.271.271 0 0 0-.207.102.336.336 0 0 0-.073.24l.151 1.917c.01.114.093.199.196.199h3.033c.102 0 .186-.086.195-.199l.152-1.918a.323.323 0 0 0-.134-.295.261.261 0 0 0-.147-.046H2.186Z" fill="#000"/><path d="M5.591 4.285a.261.261 0 0 0-.122-.03H2.305c-.17 0-.305.162-.29.35l.152 1.918c.002.03.01.058.021.084a.223.223 0 0 1-.14-.196l-.151-1.918c-.015-.188.119-.35.289-.35H5.35c.101 0 .19.057.241.142Z" fill="#fff" opacity=".75"/><path d="M5.285 6.67H2.252c-.132 0-.24-.11-.251-.255l-.152-1.918a.403.403 0 0 1 .088-.286.324.324 0 0 1 .248-.121H5.35c.094 0 .185.044.248.121a.402.402 0 0 1 .088.286l-.152 1.918c-.01.146-.118.255-.25.255ZM2.186 4.195a.23.23 0 0 0-.18.088.285.285 0 0 0-.062.206l.152 1.918c.007.09.074.159.156.159h3.033c.082 0 .149-.069.156-.16l.152-1.917a.285.285 0 0 0-.063-.206.23.23 0 0 0-.18-.088H2.186Z" fill="#000"/><path d="M5.66 4.438 5.51 6.356c-.01.117-.098.207-.204.207H2.57c1.683-.147 2.725-.902 2.952-2.428.091.062.148.177.138.303Z" fill="#797979" opacity=".3"/></g><defs><linearGradient id="a" x1="3.764" y1="2.318" x2="3.734" y2="6.629" gradientUnits="userSpaceOnUse"><stop/><stop offset="1" stop-color="#fff"/></linearGradient></defs></svg>