<svg width="209" height="51" fill="none" xmlns="http://www.w3.org/2000/svg"><path fill-rule="evenodd" clip-rule="evenodd" d="m24.897 17.415.614 3.001.591.032.586.051.578.065.568.078.558.097.55.107.54.129.53.143.523.166.512.18.499.204.49.221.475.24.466.263.453.287.438.305 1.478-2.356-.554-.383-.563-.355-.582-.333-.596-.3-.614-.277-.623-.25-.637-.23-.651-.203-.666-.18-.678-.162-.688-.138-.697-.116-.712-.097-.72-.083-.73-.06-.738-.046Z" fill="url(#a)"/><path fill-rule="evenodd" clip-rule="evenodd" d="m35.35 20.628-1.477 2.355.115.088.102.18.083.273.065.355.046.43.018.503-.004.572-.037.628-.07.688-.096.735-.139.775-.175.813-.218.845-.258.873-.305.89-.35.906-.407.914-.457.919-.513.91-.572.904-.633.892-.693.868-.761.845-.827.813-.9.775-.97.73-1.044.678-1.126.629-1.2.567-1.289.5-1.371.424-1.46.35-2.387 2.96 1.824-.433 1.713-.536 1.612-.623 1.5-.707 1.409-.785 1.306-.85 1.215-.914 1.122-.97 1.034-1.01.952-1.058.867-1.085.79-1.113.711-1.131.642-1.14.573-1.15.508-1.14.438-1.132.383-1.118.324-1.085.272-1.057.217-1.02.17-.97.126-.92.083-.853.046-.79.009-.711-.028-.628-.055-.54-.079-.443-.106-.338-.124-.23-.144-.107Z" fill="url(#b)"/><path fill-rule="evenodd" clip-rule="evenodd" d="M48.464 22.65c-6.87-4.81-15.293-9.728-23.567-5.23 3.97.193 7.554 1.084 10.449 3.213 1.611.494.734 22.482-19.306 26.587 11.004 3.897 23.535-.59 29.4-11.128a24.274 24.274 0 0 0 3.024-13.441Z" fill="url(#c)"/><path fill-rule="evenodd" clip-rule="evenodd" d="m15.634 16.473 2.78.101.014-.143.11-.18.19-.208.277-.23.35-.255.426-.268.498-.281.564-.282.628-.286.683-.282.744-.268.79-.258.84-.236.886-.207.924-.185.96-.143.993-.111 1.025-.06 1.048-.014 1.067.042 1.085.106 1.103.166 1.108.236 1.118.309 1.122.392 1.117.476 1.113.563 1.104.66 1.094.762 1.076.864 1.053.974 1.03 1.09 3.758.586-1.288-1.362-1.32-1.219-1.345-1.08-1.362-.947-1.38-.826-1.395-.707-1.394-.596-1.4-.489-1.398-.388-1.386-.295-1.376-.208-1.362-.13-1.334-.05-1.312.014-1.279.078-1.242.134-1.2.185-1.155.226-1.103.263-1.053.296-.988.318-.928.337-.854.351-.785.356-.707.355-.619.351-.535.333-.439.318-.342.291-.24.264-.134.221-.023.176Z" fill="url(#d)"/><path fill-rule="evenodd" clip-rule="evenodd" d="M10.824 4.103c-.734 8.358-.775 18.105 7.25 23.028-1.815-3.537-2.836-7.084-2.443-10.657-.379-1.644 19.102-11.877 32.678 3.426C46.185 8.425 36.03-.186 23.97.003a24.27 24.27 0 0 0-12.042 3.399c-.37.226-.739.461-1.104.701Z" fill="url(#e)"/><path fill-rule="evenodd" clip-rule="evenodd" d="m21.89 35.623-1.302-2.457-.134.056h-.207l-.273-.065-.341-.12-.398-.18-.443-.236-.49-.286-.53-.346-.56-.402-.585-.452-.605-.508-.614-.56-.628-.609-.624-.66-.619-.711-.61-.757-.586-.808-.567-.855-.531-.9-.5-.947-.456-.992-.407-1.04-.35-1.08-.287-1.122-.222-1.163-.147-1.206-.07-1.246.019-1.289.115-1.325.208-1.362.319-1.404.425-1.436L8.518 5.61l-.53 1.796-.398 1.75-.263 1.704-.139 1.658-.023 1.607.083 1.56.185 1.506.277 1.459.36 1.403.439 1.349.508 1.297.568 1.238.623 1.186.665 1.127.707 1.067.738 1.011.758.947.775.886.78.827.781.762.771.697.757.632.73.568.702.5.66.433.614.365.554.29.5.227.42.148.345.078.26.005.165-.07Z" fill="url(#f)"/><path fill-rule="evenodd" clip-rule="evenodd" d="M13.585 45.974c7.605-3.547 16.069-8.381 16.318-17.792-2.157 3.343-4.72 5.999-8.007 7.444C20.66 36.776 2.06 25.019 8.524 5.612-.351 13.19-2.733 26.29 3.459 36.637a24.205 24.205 0 0 0 10.126 9.337Z" fill="url(#g)"/><path fill-rule="evenodd" clip-rule="evenodd" d="M138.79 11.264h6.75l9.024 7.77v-7.77h7.032V29.7h-6.777l-8.957-8.768V29.7h-7.072V11.264Z" fill="url(#h)"/><path d="M136.925 11.264h-7.066V29.7h7.066V11.264Z" fill="url(#i)"/><path fill-rule="evenodd" clip-rule="evenodd" d="m127.136 11.197.898 1.026v6.81h-7.032v-2.44h-8.514v7.77h8.514v-2.44h7.032v6.329c0 .321-.16.643-.482.965-.322.322-.65.483-.999.483h-20.367l-.482-.45a14.022 14.022 0 0 1-.309-.563c-.12-.228-.174-.368-.174-.435V12.705c0-.067.06-.208.174-.436.121-.228.221-.402.309-.53.087-.086.187-.2.308-.334.121-.141.188-.208.208-.208h20.916Z" fill="url(#j)"/><path fill-rule="evenodd" clip-rule="evenodd" d="M82.52 11.197V29.7h20.876v-5.075H89.78v-1.509h8.769l2.407-5.336H89.78v-1.508h13.616v-5.075H82.52Z" fill="url(#k)"/><path fill-rule="evenodd" clip-rule="evenodd" d="M80.657 11.263v5.33h-15.58v7.77h8.514v-5.558h7.033v10.888H59.68a2.67 2.67 0 0 1-.838-.383 3.438 3.438 0 0 1-.577-.516 1.932 1.932 0 0 1-.322-.496 1.011 1.011 0 0 1-.093-.369V13.221c0-.067.033-.16.093-.288.067-.128.141-.275.228-.436.087-.16.175-.308.255-.45.087-.14.148-.254.194-.334.04-.04.121-.094.242-.148.12-.053.241-.1.369-.147l.355-.114a.974.974 0 0 1 .194-.047h20.877v.006Z" fill="url(#l)"/><path fill-rule="evenodd" clip-rule="evenodd" d="m163.994 26.112 3.037-.188c.067.49.201.865.402 1.126.328.416.798.624 1.408.624.456 0 .804-.107 1.052-.322.248-.215.369-.463.369-.744 0-.268-.114-.51-.349-.718-.234-.214-.777-.409-1.635-.596-1.401-.315-2.394-.73-2.99-1.254-.603-.523-.899-1.186-.899-1.99 0-.53.155-1.033.463-1.503.308-.469.771-.838 1.388-1.112.616-.268 1.461-.403 2.534-.403 1.32 0 2.326.248 3.017.738.69.49 1.099 1.274 1.233 2.34l-3.003.174c-.081-.463-.248-.805-.503-1.013-.255-.207-.61-.315-1.059-.315-.376 0-.65.074-.838.235a.72.72 0 0 0-.282.577c0 .16.074.308.228.442.154.134.51.261 1.073.382 1.394.302 2.393.604 2.99.912.603.308 1.046.684 1.314 1.146.275.456.415.966.415 1.529 0 .663-.187 1.274-.549 1.83-.362.556-.879.985-1.536 1.274-.656.288-1.481.429-2.48.429-1.757 0-2.97-.335-3.647-1.012-.684-.691-1.059-1.55-1.153-2.588Zm40.86.536h3.064v2.87h-3.064v-2.87Zm-10.209-.536 3.036-.188c.067.49.202.865.403 1.126.328.416.797.624 1.407.624.455 0 .804-.107 1.053-.322.248-.215.369-.463.369-.744 0-.268-.114-.51-.349-.718-.235-.214-.778-.409-1.637-.596-1.399-.315-2.392-.73-2.989-1.254-.603-.523-.898-1.186-.898-1.99 0-.53.153-1.033.463-1.503.308-.469.771-.838 1.387-1.112.617-.268 1.461-.403 2.534-.403 1.321 0 2.327.248 3.017.738.691.49 1.099 1.274 1.234 2.34l-3.005.174c-.08-.463-.246-.805-.502-1.013-.253-.207-.61-.315-1.059-.315-.376 0-.65.074-.838.235a.723.723 0 0 0-.282.577c0 .16.075.308.229.442.153.134.51.261 1.072.382 1.395.302 2.394.604 2.991.912.603.308 1.045.684 1.314 1.146.274.456.416.966.416 1.529 0 .663-.189 1.274-.551 1.83-.362.556-.879.985-1.536 1.274-.656.288-1.481.429-2.48.429-1.756 0-2.969-.335-3.646-1.012-.677-.691-1.06-1.55-1.153-2.588Zm-4.425.536h3.063v2.87h-3.063v-2.87Zm-4.68 1.173h-3.633l-.503 1.703h-3.258l3.875-10.317h3.472l3.882 10.317h-3.339l-.496-1.703Zm-.67-2.232-1.14-3.707-1.132 3.707h2.272Zm-10.659 1.059h3.064v2.87h-3.064v-2.87Z" fill="url(#m)"/><path d="M207.918 31.59H57.851v1.662h150.067V31.59Z" fill="url(#n)"/><path fill-rule="evenodd" clip-rule="evenodd" d="M60.062 37.617v-.758h1.743v1.55c-.335.227-.63.381-.885.462-.255.08-.563.12-.912.12-.436 0-.784-.074-1.059-.22a1.51 1.51 0 0 1-.637-.658 2.091 2.091 0 0 1-.228-.999c0-.395.08-.744.248-1.032a1.55 1.55 0 0 1 .724-.664c.248-.114.577-.174 1-.174.402 0 .703.033.904.107.201.074.369.188.496.335.134.154.228.349.295.584l-1.086.194a.613.613 0 0 0-.228-.315.701.701 0 0 0-.409-.108.746.746 0 0 0-.59.255c-.147.175-.22.443-.22.811 0 .396.073.67.22.845.148.168.356.255.624.255.127 0 .248-.02.362-.054.114-.033.248-.1.395-.187v-.342h-.757v-.007Zm5.276.255h-2.031c.02.16.06.281.134.362.1.114.228.167.382.167.1 0 .194-.027.281-.073a.666.666 0 0 0 .175-.168l.999.094c-.155.261-.336.456-.55.57-.215.114-.523.174-.932.174-.349 0-.624-.047-.825-.148a1.189 1.189 0 0 1-.496-.469 1.382 1.382 0 0 1-.2-.75c0-.41.133-.745.395-1 .268-.254.63-.382 1.1-.382.375 0 .676.06.898.175.22.114.388.281.502.496.114.214.175.496.175.844v.108h-.007Zm-1.032-.483c-.02-.194-.074-.335-.155-.416a.455.455 0 0 0-.335-.127.473.473 0 0 0-.389.194c-.06.08-.1.195-.114.356h.992v-.007Zm1.32.818 1.006-.094c.04.12.1.208.174.255.074.053.174.073.302.073.134 0 .241-.026.315-.087a.182.182 0 0 0 .087-.16c0-.074-.04-.128-.114-.168-.054-.027-.201-.06-.436-.1a5.112 5.112 0 0 1-.73-.168.827.827 0 0 1-.35-.262.668.668 0 0 1-.14-.422.7.7 0 0 1 .154-.45.883.883 0 0 1 .416-.28c.174-.061.416-.095.717-.095.315 0 .55.027.698.074.147.047.274.12.375.221.1.1.181.235.248.41l-.959.093a.327.327 0 0 0-.127-.188.503.503 0 0 0-.288-.08c-.114 0-.202.02-.248.06-.054.04-.08.087-.08.148 0 .067.033.114.1.147.067.034.208.06.436.087.335.04.59.088.75.161.168.068.288.161.376.289a.715.715 0 0 1 .134.415.786.786 0 0 1-.141.443.96.96 0 0 1-.436.342c-.2.087-.47.127-.81.127-.484 0-.826-.067-1.033-.208a.9.9 0 0 1-.396-.583Zm4.512-2.903v.999h.556v.737h-.556v.932c0 .114.013.188.033.221.034.054.094.088.175.088.073 0 .18-.02.315-.067l.073.697a3.33 3.33 0 0 1-.703.08c-.255 0-.436-.033-.557-.094a.566.566 0 0 1-.261-.294c-.06-.135-.087-.343-.087-.637v-.926h-.376v-.737h.376v-.483l1.012-.516Zm1.08 0h1.012v.684h-1.013v-.684Zm0 .999h1.012v2.628h-1.013v-2.628Zm1.534 1.32c0-.402.135-.73.41-.991.274-.262.636-.39 1.099-.39.53 0 .932.155 1.2.457.214.248.328.55.328.911 0 .403-.134.738-.402.992-.268.255-.643.39-1.12.39-.422 0-.764-.108-1.032-.322-.322-.262-.483-.61-.483-1.046Zm1.02 0c0 .235.046.41.14.524a.445.445 0 0 0 .362.167.445.445 0 0 0 .362-.167c.094-.114.141-.289.141-.53 0-.228-.047-.396-.14-.51a.438.438 0 0 0-.35-.167.467.467 0 0 0-.368.167c-.1.114-.147.289-.147.517Zm.475-2.38h.872l-.804.738h-.483l.415-.737Zm2.032 1.06h.945v.429c.14-.174.282-.302.43-.375.147-.074.32-.114.529-.114.281 0 .502.087.657.248.16.167.234.422.234.77v1.67h-1.019v-1.448c0-.168-.033-.282-.094-.349-.06-.067-.147-.1-.261-.1a.36.36 0 0 0-.295.14c-.074.095-.114.262-.114.497v1.26H76.28v-2.628Zm5.162-.999h3.023v.778h-1.89v.576h1.756v.738h-1.756v.717h1.944v.825H81.44v-3.634Zm3.627.999h.945v.382a1.32 1.32 0 0 1 .409-.342c.14-.067.308-.1.503-.1.214 0 .375.04.502.114.121.073.222.187.302.335.161-.174.302-.288.436-.349.127-.06.295-.094.482-.094.282 0 .503.087.664.255.161.168.241.43.241.784v1.65H88.54v-1.495c0-.121-.02-.208-.067-.268a.298.298 0 0 0-.254-.135c-.121 0-.215.04-.289.128-.074.087-.107.221-.107.416v1.354h-1.019V37.49a.889.889 0 0 0-.02-.235.31.31 0 0 0-.302-.221.379.379 0 0 0-.288.134c-.074.087-.114.234-.114.429v1.34h-1.02v-2.634h.008Zm5.095 3.634v-3.634h.945v.389c.134-.161.255-.275.362-.335a.996.996 0 0 1 .49-.114c.355 0 .63.134.817.402.195.268.288.603.288.999 0 .436-.107.77-.315.999a1.04 1.04 0 0 1-.797.348 1.11 1.11 0 0 1-.43-.08 1.073 1.073 0 0 1-.341-.235v1.254h-1.02v.007Zm1.012-2.313c0 .207.047.362.134.462a.43.43 0 0 0 .335.154c.121 0 .215-.047.295-.147.08-.094.121-.262.121-.49 0-.214-.04-.368-.127-.469a.375.375 0 0 0-.302-.154.403.403 0 0 0-.322.154c-.087.1-.134.268-.134.49Zm2.393-1.321h.945v.429c.094-.188.188-.315.282-.382a.61.61 0 0 1 .362-.107c.148 0 .315.046.49.14l-.316.718a.872.872 0 0 0-.281-.074.35.35 0 0 0-.308.16c-.108.155-.155.444-.155.866v.878h-1.019v-2.628Zm5.27 1.569h-2.032c.02.16.06.281.134.362.1.114.228.167.383.167.1 0 .194-.027.281-.073a.666.666 0 0 0 .174-.168l1 .094c-.155.261-.336.456-.55.57-.215.114-.523.174-.926.174-.348 0-.623-.047-.824-.148a1.19 1.19 0 0 1-.496-.469 1.382 1.382 0 0 1-.201-.75c0-.41.134-.745.395-1 .268-.254.63-.382 1.1-.382.375 0 .677.06.898.175.221.114.389.281.503.496.114.214.174.496.174.844v.108h-.013Zm-1.033-.483c-.02-.194-.074-.335-.16-.416a.455.455 0 0 0-.336-.127.473.473 0 0 0-.389.194c-.06.08-.1.195-.114.356h1v-.007Zm1.32.818 1.006-.094a.47.47 0 0 0 .175.255c.073.053.174.073.302.073.134 0 .241-.026.315-.087a.183.183 0 0 0 .087-.16c0-.074-.04-.128-.114-.168-.054-.027-.201-.06-.436-.1a5.094 5.094 0 0 1-.73-.168.827.827 0 0 1-.35-.262.668.668 0 0 1-.14-.422.7.7 0 0 1 .154-.45.883.883 0 0 1 .416-.28c.174-.061.415-.095.717-.095.315 0 .55.027.697.074.154.047.275.12.376.221.1.1.181.235.248.41l-.959.093a.328.328 0 0 0-.127-.188.507.507 0 0 0-.289-.08c-.114 0-.201.02-.248.06-.053.04-.08.087-.08.148 0 .067.033.114.101.147.066.034.207.06.435.087.335.04.59.088.751.161.168.068.288.161.375.289a.71.71 0 0 1 .135.415.784.784 0 0 1-.141.443.961.961 0 0 1-.436.342c-.201.087-.469.127-.811.127-.483 0-.825-.067-1.032-.208a.9.9 0 0 1-.396-.583Zm4.218-1.053-.966-.1a.942.942 0 0 1 .161-.396.845.845 0 0 1 .295-.248c.094-.053.222-.094.382-.12.161-.027.336-.04.53-.04.302 0 .55.013.731.053a.98.98 0 0 1 .462.215.79.79 0 0 1 .208.315c.047.134.074.268.074.388v1.16a1.064 1.064 0 0 0 .127.557h-.952c-.04-.067-.06-.121-.074-.155-.013-.033-.02-.093-.033-.167a1.277 1.277 0 0 1-.396.275 1.644 1.644 0 0 1-.623.107c-.315 0-.557-.074-.717-.221a.7.7 0 0 1-.248-.537c0-.2.06-.361.174-.496.121-.127.335-.22.65-.288a9.17 9.17 0 0 0 .738-.16c.114-.034.234-.075.355-.121 0-.121-.027-.208-.074-.262-.053-.047-.141-.074-.275-.074-.167 0-.288.027-.375.08a.411.411 0 0 0-.154.235Zm.878.53a4.15 4.15 0 0 1-.436.134c-.208.054-.335.107-.389.161a.262.262 0 0 0-.087.188c0 .08.027.14.081.194.053.054.14.074.248.074a.65.65 0 0 0 .315-.08.507.507 0 0 0 .208-.202c.04-.08.06-.18.06-.308v-.161Zm1.602-1.381h.945v.429c.094-.188.188-.315.282-.382a.61.61 0 0 1 .362-.107c.147 0 .315.046.489.14l-.315.718a.867.867 0 0 0-.281-.074.352.352 0 0 0-.309.16c-.107.155-.154.444-.154.866v.878h-1.019v-2.628Zm2.293-.999h1.012v.684h-1.012v-.684Zm0 .999h1.012v2.628h-1.012v-2.628Zm2.581.851-.966-.1c.034-.168.088-.302.155-.396a.836.836 0 0 1 .295-.248c.094-.053.221-.094.382-.12.161-.027.335-.04.529-.04.302 0 .55.013.731.053a.989.989 0 0 1 .463.215.714.714 0 0 1 .201.315c.047.134.074.268.074.388v1.16a1.064 1.064 0 0 0 .127.557h-.952c-.04-.067-.06-.121-.074-.155-.013-.033-.02-.093-.033-.167a1.363 1.363 0 0 1-.396.275 1.644 1.644 0 0 1-.623.107c-.315 0-.557-.074-.717-.221a.698.698 0 0 1-.249-.537c0-.2.061-.361.175-.496.12-.127.335-.22.65-.288.382-.074.63-.127.737-.16.114-.034.235-.075.356-.121 0-.121-.027-.208-.074-.262-.054-.047-.141-.074-.275-.074-.167 0-.288.027-.375.08a.611.611 0 0 0-.141.235Zm.878.53a4.078 4.078 0 0 1-.436.134c-.207.054-.335.107-.388.161a.236.236 0 0 0-.088.188c0 .08.027.14.081.194.053.054.134.074.248.074a.65.65 0 0 0 .315-.08.501.501 0 0 0 .208-.202c.04-.08.06-.18.06-.308v-.161Zm1.636-2.38h1.019v3.634h-1.019v-3.634Zm3.171 1.917h1.475V38h-1.475v-.778Zm6.087.229.986.294a1.766 1.766 0 0 1-.316.69c-.14.189-.321.323-.529.416-.215.094-.483.141-.805.141-.395 0-.724-.06-.972-.174-.254-.114-.469-.315-.65-.603-.181-.289-.275-.657-.275-1.107 0-.603.161-1.066.483-1.387.322-.322.777-.483 1.361-.483.462 0 .818.094 1.086.275.261.188.456.47.583.851l-.992.221a.86.86 0 0 0-.107-.24.622.622 0 0 0-.235-.202.674.674 0 0 0-.308-.067c-.255 0-.45.1-.59.308-.101.155-.155.39-.155.718 0 .402.061.677.181.831.121.148.296.221.517.221.214 0 .382-.06.489-.18.121-.115.201-.296.248-.523Zm1.341.174c0-.403.134-.731.409-.992.275-.262.643-.39 1.106-.39.53 0 .932.155 1.2.457.214.248.328.55.328.911 0 .403-.134.738-.402.992-.268.255-.643.39-1.119.39-.423 0-.771-.108-1.033-.322-.328-.262-.489-.61-.489-1.046Zm1.019 0c0 .234.047.409.141.523a.444.444 0 0 0 .362.167.445.445 0 0 0 .362-.167c.094-.114.141-.289.141-.53 0-.228-.047-.396-.141-.51a.439.439 0 0 0-.349-.167.47.47 0 0 0-.369.167c-.1.114-.147.289-.147.517Zm2.507-1.321h.945v.429c.141-.174.282-.302.43-.375.147-.074.321-.114.529-.114.282 0 .503.087.657.248.161.167.235.422.235.77v1.67h-1.019v-1.448c0-.168-.034-.282-.094-.349s-.148-.1-.262-.1a.36.36 0 0 0-.295.14c-.073.095-.113.262-.113.497v1.26h-1.013v-2.628Zm3.225 1.904 1.005-.094a.47.47 0 0 0 .175.255c.073.053.174.073.301.073.134 0 .242-.026.315-.087a.182.182 0 0 0 .088-.16c0-.074-.041-.128-.114-.168-.054-.027-.201-.06-.436-.1a5.096 5.096 0 0 1-.731-.168.83.83 0 0 1-.349-.262.673.673 0 0 1-.14-.422c0-.174.053-.322.154-.45a.882.882 0 0 1 .416-.28c.181-.061.415-.095.717-.095.315 0 .55.027.697.074.148.047.275.12.376.221.1.1.18.235.248.41l-.959.093a.328.328 0 0 0-.127-.188.507.507 0 0 0-.289-.08c-.114 0-.201.02-.248.06-.053.04-.08.087-.08.148 0 .067.033.114.1.147.067.034.208.06.436.087.335.04.59.088.751.161.168.068.288.161.375.289a.716.716 0 0 1 .134.415.79.79 0 0 1-.14.443.961.961 0 0 1-.436.342c-.201.087-.469.127-.811.127-.483 0-.825-.067-1.033-.208a.897.897 0 0 1-.395-.583Zm6.074.724h-.946v-.43c-.14.175-.281.303-.429.376a1.165 1.165 0 0 1-.529.114c-.282 0-.496-.08-.657-.248-.154-.167-.235-.422-.235-.764v-1.676h1.019v1.448c0 .168.034.282.094.349s.147.107.261.107a.358.358 0 0 0 .295-.14c.081-.095.114-.262.114-.497v-1.267h1.013v2.628Zm.65-3.627h1.019v3.634h-1.019v-3.634Zm2.889 0v.999h.557v.737h-.557v.932c0 .114.014.188.034.221.033.054.094.088.174.088.074 0 .181-.02.315-.067l.074.697c-.248.053-.483.08-.704.08-.255 0-.436-.033-.556-.094a.61.61 0 0 1-.269-.294c-.06-.135-.087-.343-.087-.637v-.926h-.375v-.737h.375v-.483l1.019-.516Zm.912 2.32c0-.403.134-.731.409-.992.275-.262.637-.39 1.099-.39.53 0 .932.155 1.2.457.215.248.329.55.329.911 0 .403-.134.738-.402.992-.268.255-.644.39-1.12.39-.422 0-.771-.108-1.032-.322-.322-.262-.483-.61-.483-1.046Zm1.019 0c0 .234.047.409.141.523a.444.444 0 0 0 .362.167.445.445 0 0 0 .362-.167c.094-.114.141-.289.141-.53 0-.228-.047-.396-.141-.51a.439.439 0 0 0-.349-.167.47.47 0 0 0-.369.167c-.1.114-.147.289-.147.517Zm2.514-1.321h.945v.429c.094-.188.188-.315.282-.382a.608.608 0 0 1 .362-.107c.147 0 .315.046.489.14l-.315.718a.865.865 0 0 0-.282-.074.35.35 0 0 0-.308.16c-.107.155-.154.444-.154.866v.878h-1.019v-2.628Zm2.293 0h1.012v2.628h-1.012v-2.628Zm.482-1.06h.872l-.805.738h-.482l.415-.737Zm2.099 1.911-.966-.1c.034-.168.087-.302.155-.396a.84.84 0 0 1 .294-.248c.094-.053.222-.094.383-.12.16-.027.335-.04.529-.04.302 0 .55.013.731.053a.989.989 0 0 1 .463.215.778.778 0 0 1 .207.315c.047.134.074.268.074.388v1.16a1.106 1.106 0 0 0 .128.557h-.952c-.041-.067-.061-.121-.074-.155-.014-.033-.02-.093-.034-.167a1.285 1.285 0 0 1-.395.275 1.646 1.646 0 0 1-.624.107c-.315 0-.556-.074-.717-.221a.7.7 0 0 1-.248-.537c0-.2.06-.361.174-.496.121-.127.336-.22.65-.288a8.96 8.96 0 0 0 .738-.16c.114-.034.235-.075.355-.121 0-.121-.027-.208-.073-.262-.054-.047-.141-.074-.275-.074-.168 0-.289.027-.376.08a.548.548 0 0 0-.147.235Zm.885.53a4.15 4.15 0 0 1-.436.134c-.208.054-.335.107-.389.161a.238.238 0 0 0-.087.188c0 .08.027.14.08.194.054.054.141.074.248.074a.653.653 0 0 0 .316-.08.504.504 0 0 0 .207-.202.672.672 0 0 0 .061-.308v-.161Zm1.414.523 1.006-.094c.04.12.1.208.174.255.074.053.174.073.302.073.134 0 .241-.026.315-.087a.183.183 0 0 0 .087-.16c0-.074-.04-.128-.114-.168-.054-.027-.201-.06-.436-.1a5.107 5.107 0 0 1-.73-.168.83.83 0 0 1-.349-.262.667.667 0 0 1-.141-.422c0-.174.054-.322.154-.45a.887.887 0 0 1 .416-.28c.174-.061.416-.095.717-.095.315 0 .55.027.698.074.147.047.274.12.375.221.101.1.181.235.248.41l-.959.093a.324.324 0 0 0-.127-.188.502.502 0 0 0-.288-.08c-.114 0-.201.02-.248.06-.054.04-.081.087-.081.148 0 .067.034.114.101.147.067.034.208.06.436.087.335.04.589.088.75.161.168.068.289.161.376.289a.716.716 0 0 1 .134.415.784.784 0 0 1-.141.443.961.961 0 0 1-.436.342c-.201.087-.469.127-.811.127-.482 0-.824-.067-1.032-.208a.927.927 0 0 1-.396-.583Zm7.931-.335h-2.031c.02.16.06.281.134.362.1.114.228.167.382.167a.591.591 0 0 0 .282-.073.668.668 0 0 0 .174-.168l.999.094c-.154.261-.335.456-.55.57-.215.114-.523.174-.925.174-.349 0-.624-.047-.825-.148a1.193 1.193 0 0 1-.496-.469 1.382 1.382 0 0 1-.201-.75c0-.41.134-.745.396-1 .268-.254.63-.382 1.099-.382.375 0 .677.06.898.175.222.114.389.281.503.496.114.214.174.496.174.844v.108h-.013Zm-1.032-.483c-.02-.194-.074-.335-.161-.416a.457.457 0 0 0-.336-.127.472.472 0 0 0-.388.194.664.664 0 0 0-.114.356h.999v-.007Zm3.305-2.085h1.133v3.634h-1.133v-3.634Zm1.877.999h.945v.429c.141-.174.282-.302.429-.375.148-.074.322-.114.53-.114.281 0 .502.087.657.248.161.167.234.422.234.77v1.67h-1.019v-1.448c0-.168-.033-.282-.094-.349-.06-.067-.147-.1-.261-.1a.359.359 0 0 0-.295.14c-.074.095-.114.262-.114.497v1.26h-1.012v-2.628Zm5.236 0h.951v2.594a1.096 1.096 0 0 1-.388.831 1.07 1.07 0 0 1-.449.202c-.181.04-.389.06-.617.06-.53 0-.899-.08-1.093-.241a.784.784 0 0 1-.295-.637c0-.034 0-.08.007-.134l.985.114c.027.094.061.154.114.188.074.053.168.08.282.08.147 0 .255-.04.328-.114.074-.08.108-.215.108-.409v-.396a1.15 1.15 0 0 1-.302.255c-.154.08-.322.12-.503.12-.355 0-.637-.153-.858-.462-.154-.214-.228-.51-.228-.864 0-.41.101-.724.302-.939.201-.215.462-.322.784-.322.208 0 .375.034.51.108.134.066.261.18.375.341v-.375h-.013Zm-.952 1.274c0 .188.04.328.12.422.081.094.188.14.322.14a.398.398 0 0 0 .315-.14c.087-.094.128-.241.128-.429 0-.194-.047-.335-.135-.436a.425.425 0 0 0-.328-.154.374.374 0 0 0-.308.14c-.074.088-.114.242-.114.457Z" fill="url(#o)"/><path fill-rule="evenodd" clip-rule="evenodd" d="M173.602 37.872h-2.032c.02.16.061.281.134.362a.485.485 0 0 0 .382.167.588.588 0 0 0 .282-.073.653.653 0 0 0 .174-.168l.999.094c-.154.261-.335.456-.549.57-.215.114-.523.174-.932.174-.349 0-.624-.047-.825-.148a1.187 1.187 0 0 1-.496-.469 1.382 1.382 0 0 1-.201-.75c0-.41.134-.745.395-1 .262-.254.631-.382 1.1-.382.375 0 .677.06.898.175.221.114.389.281.503.496.114.214.174.496.174.844v.108h-.006Zm-1.033-.483c-.02-.194-.073-.335-.161-.416a.454.454 0 0 0-.335-.127.474.474 0 0 0-.389.194c-.06.08-.1.195-.114.356h.999v-.007Zm1.495-1.086h.946v.429c.14-.174.281-.302.429-.375.14-.074.321-.114.529-.114.282 0 .503.087.657.248.161.167.235.422.235.77v1.67h-1.019v-1.448c0-.168-.034-.282-.094-.349s-.148-.1-.262-.1a.38.38 0 0 0-.301.14c-.074.095-.114.262-.114.497v1.26h-1.013v-2.628h.007Zm3.439-.999h1.013v.684h-1.013v-.684Zm0 .999h1.013v2.628h-1.013v-2.628Zm4.593 1.569h-2.032c.02.16.061.281.134.362a.485.485 0 0 0 .382.167.588.588 0 0 0 .282-.073.653.653 0 0 0 .174-.168l.999.094c-.154.261-.335.456-.549.57-.215.114-.524.174-.926.174-.348 0-.623-.047-.824-.148a1.187 1.187 0 0 1-.496-.469 1.382 1.382 0 0 1-.201-.75c0-.41.134-.745.395-1 .268-.254.63-.382 1.099-.382.376 0 .678.06.899.175.221.114.389.281.503.496.114.214.174.496.174.844v.108h-.013Zm-1.026-.483c-.02-.194-.074-.335-.161-.416a.454.454 0 0 0-.335-.127.473.473 0 0 0-.389.194.673.673 0 0 0-.114.356h.999v-.007Zm1.502-1.086h.945v.429c.094-.188.187-.315.281-.382a.61.61 0 0 1 .362-.107c.148 0 .315.046.49.14l-.315.718a.877.877 0 0 0-.282-.074.35.35 0 0 0-.308.16c-.108.155-.155.444-.155.866v.878h-1.018v-2.628Zm2.292 0h1.013v2.628h-1.013v-2.628Zm.483-1.06h.871l-.804.738h-.483l.416-.737Zm2.098 1.911-.965-.1a.929.929 0 0 1 .161-.396.845.845 0 0 1 .295-.248c.093-.053.222-.094.382-.12.161-.027.334-.04.53-.04.301 0 .549.013.73.053a.984.984 0 0 1 .463.215.768.768 0 0 1 .207.315c.048.134.074.268.074.388v1.16c0 .12.008.221.027.288.015.068.046.161.1.269h-.951c-.04-.067-.06-.121-.073-.155-.015-.033-.021-.093-.034-.167a1.373 1.373 0 0 1-.395.275 1.65 1.65 0 0 1-.624.107c-.315 0-.558-.074-.718-.221a.7.7 0 0 1-.248-.537c0-.2.06-.361.174-.496.121-.127.335-.22.651-.288.382-.074.63-.127.737-.16.114-.034.235-.075.356-.121 0-.121-.028-.208-.075-.262-.054-.047-.139-.074-.268-.074-.166 0-.288.027-.375.08a.461.461 0 0 0-.161.235Zm.879.53a4.168 4.168 0 0 1-.437.134c-.207.054-.334.107-.388.161a.235.235 0 0 0-.087.188c0 .08.026.14.08.194.054.054.134.074.248.074a.646.646 0 0 0 .315-.08.501.501 0 0 0 .208-.202.672.672 0 0 0 .061-.308v-.161Zm3.171.047 1.073-.067c.02.174.067.308.14.395.113.148.281.222.496.222.16 0 .282-.04.375-.114a.327.327 0 0 0 .127-.262.338.338 0 0 0-.12-.255c-.08-.073-.274-.147-.576-.207-.497-.114-.846-.255-1.06-.443a.876.876 0 0 1-.321-.704.97.97 0 0 1 .16-.53c.109-.167.275-.294.489-.388.222-.094.517-.14.9-.14.468 0 .825.086 1.065.26.248.175.388.45.435.825l-1.065.06c-.027-.16-.088-.281-.181-.355a.574.574 0 0 0-.376-.114c-.134 0-.227.027-.294.08a.245.245 0 0 0-.101.202c0 .06.026.107.08.154.054.047.181.094.383.134.489.107.845.215 1.06.322.214.107.367.241.46.402.096.16.148.342.148.536 0 .235-.065.45-.194.644a1.198 1.198 0 0 1-.543.45c-.233.1-.523.153-.877.153-.618 0-1.053-.12-1.288-.355a1.446 1.446 0 0 1-.395-.905Zm3.814.194h1.086v1.013h-1.086v-1.013Zm4.008.41h-1.286l-.175.596h-1.153l1.375-3.634h1.226l1.375 3.634h-1.181l-.181-.597Zm-.241-.785-.401-1.307-.403 1.307h.804Zm1.898.375h1.086v1.013h-1.086v-1.013Zm1.562-.194 1.073-.067a.793.793 0 0 0 .14.395c.114.148.282.222.496.222.161 0 .282-.04.37-.114a.333.333 0 0 0 .127-.262.342.342 0 0 0-.121-.255c-.081-.073-.275-.147-.577-.207-.496-.114-.844-.255-1.058-.443a.877.877 0 0 1-.323-.704.97.97 0 0 1 .16-.53c.109-.167.277-.294.491-.388.22-.094.515-.14.898-.14.47 0 .825.086 1.065.26.249.175.39.45.437.825l-1.065.06c-.028-.16-.088-.281-.182-.355a.57.57 0 0 0-.376-.114c-.133 0-.228.027-.295.08a.248.248 0 0 0-.101.202c0 .06.028.107.082.154.052.047.181.094.381.134.491.107.845.215 1.06.322.214.107.367.241.462.402.094.16.148.342.148.536 0 .235-.067.45-.194.644a1.22 1.22 0 0 1-.543.45c-.235.1-.525.153-.879.153-.616 0-1.053-.12-1.288-.355a1.484 1.484 0 0 1-.388-.905Zm3.814.194h1.086v1.013h-1.086v-1.013Z" fill="url(#p)"/><defs><linearGradient id="i" x1="133.392" y1="11.264" x2="133.392" y2="29.7" gradientUnits="userSpaceOnUse"><stop stop-color="#606060"/><stop offset="1" stop-color="#C6C6C6"/></linearGradient><linearGradient id="a" x1="30.121" y1="17.415" x2="30.121" y2="22.983" gradientUnits="userSpaceOnUse"><stop stop-color="#606060"/><stop offset="1" stop-color="#C6C6C6"/></linearGradient><linearGradient id="c" x1="32.279" y1="15.647" x2="32.279" y2="48.609" gradientUnits="userSpaceOnUse"><stop stop-color="#606060"/><stop offset="1" stop-color="#C6C6C6"/></linearGradient><linearGradient id="d" x1="31.973" y1="11.606" x2="31.973" y2="19.903" gradientUnits="userSpaceOnUse"><stop stop-color="#606060"/><stop offset="1" stop-color="#C6C6C6"/></linearGradient><linearGradient id="e" x1="29.413" y1="0" x2="29.413" y2="27.131" gradientUnits="userSpaceOnUse"><stop stop-color="#606060"/><stop offset="1" stop-color="#C6C6C6"/></linearGradient><linearGradient id="f" x1="14.528" y1="5.609" x2="14.528" y2="35.692" gradientUnits="userSpaceOnUse"><stop stop-color="#606060"/><stop offset="1" stop-color="#C6C6C6"/></linearGradient><linearGradient id="g" x1="14.951" y1="5.612" x2="14.951" y2="45.974" gradientUnits="userSpaceOnUse"><stop stop-color="#606060"/><stop offset="1" stop-color="#C6C6C6"/></linearGradient><linearGradient id="h" x1="150.193" y1="11.264" x2="150.193" y2="29.7" gradientUnits="userSpaceOnUse"><stop stop-color="#606060"/><stop offset="1" stop-color="#C6C6C6"/></linearGradient><linearGradient id="b" x1="25.963" y1="20.628" x2="25.963" y2="47.216" gradientUnits="userSpaceOnUse"><stop stop-color="#606060"/><stop offset="1" stop-color="#C6C6C6"/></linearGradient><linearGradient id="j" x1="116.628" y1="11.197" x2="116.628" y2="29.7" gradientUnits="userSpaceOnUse"><stop stop-color="#606060"/><stop offset="1" stop-color="#C6C6C6"/></linearGradient><linearGradient id="k" x1="92.958" y1="11.197" x2="92.958" y2="29.7" gradientUnits="userSpaceOnUse"><stop stop-color="#606060"/><stop offset="1" stop-color="#C6C6C6"/></linearGradient><linearGradient id="l" x1="69.254" y1="11.257" x2="69.254" y2="29.693" gradientUnits="userSpaceOnUse"><stop stop-color="#606060"/><stop offset="1" stop-color="#C6C6C6"/></linearGradient><linearGradient id="m" x1="185.956" y1="19.032" x2="185.956" y2="29.712" gradientUnits="userSpaceOnUse"><stop stop-color="#606060"/><stop offset="1" stop-color="#C6C6C6"/></linearGradient><linearGradient id="n" x1="132.884" y1="31.59" x2="132.884" y2="33.252" gradientUnits="userSpaceOnUse"><stop stop-color="#606060"/><stop offset="1" stop-color="#C6C6C6"/></linearGradient><linearGradient id="o" x1="114.072" y1="35.237" x2="114.072" y2="39.99" gradientUnits="userSpaceOnUse"><stop stop-color="#606060"/><stop offset="1" stop-color="#C6C6C6"/></linearGradient><linearGradient id="p" x1="188.987" y1="35.237" x2="188.987" y2="38.998" gradientUnits="userSpaceOnUse"><stop stop-color="#606060"/><stop offset="1" stop-color="#C6C6C6"/></linearGradient></defs></svg>