<svg width="210" height="62" viewBox="0 0 210 62" fill="none" xmlns="http://www.w3.org/2000/svg">
<path d="M55.3428 30.6697C55.3428 34.6238 54.4225 38.3622 52.7834 41.6692C51.0292 45.2063 48.4698 48.2546 45.321 50.5983C44.1419 51.4754 42.8766 52.2518 41.5394 52.9132C39.3395 54.006 36.9671 54.768 34.4508 55.1706H34.4364C33.9476 55.2425 33.4587 55.3144 32.9555 55.3575C32.7829 55.3719 32.6104 55.3863 32.4378 55.4007C32.0928 55.4294 31.7333 55.4438 31.3738 55.4582C31.2444 55.4582 31.1294 55.4726 31 55.4726C30.8418 55.4726 30.6837 55.4726 30.5255 55.4726C28.5988 55.4726 26.7152 55.2569 24.9179 54.8399C24.5153 54.7537 24.1271 54.653 23.7389 54.538C22.6317 54.2216 21.5677 53.8478 20.5325 53.3877C11.8047 49.5486 5.70825 40.8209 5.70825 30.6697C5.70825 25.2778 7.41929 20.3028 10.3381 16.2337C10.4675 16.0468 10.6113 15.8599 10.7407 15.6729C11.0283 15.2847 11.3302 14.9109 11.6466 14.5514C11.8622 14.307 12.0635 14.0626 12.2936 13.8325C12.308 13.8181 12.3224 13.8037 12.3367 13.7894C12.4086 13.7175 12.4805 13.6312 12.5524 13.5593C12.6099 13.5018 12.6674 13.4443 12.7106 13.3868C12.7681 13.3293 12.8112 13.2861 12.8687 13.2286C12.9406 13.1567 12.9981 13.0848 13.07 13.0273C13.1419 12.9554 13.1994 12.8979 13.2713 12.826C13.3288 12.7685 13.3864 12.711 13.4439 12.6678C13.5014 12.6103 13.5445 12.5672 13.602 12.5241C13.6883 12.4378 13.7746 12.3659 13.8608 12.294C13.9184 12.2509 13.9615 12.1934 14.019 12.1502C14.0765 12.1071 14.1197 12.0496 14.1772 12.0064C14.2634 11.9345 14.3497 11.8627 14.436 11.7764C14.4504 11.762 14.4791 11.7476 14.4935 11.7332C14.5942 11.647 14.7092 11.5463 14.8098 11.4601C14.9105 11.3738 15.0255 11.2875 15.1262 11.2012C15.1549 11.1725 15.1837 11.1437 15.2268 11.1293C15.3418 11.0431 15.4569 10.9568 15.5719 10.8562C15.7013 10.7555 15.8307 10.6692 15.9601 10.5686C16.0895 10.4679 16.2189 10.3817 16.3627 10.281C16.4921 10.1947 16.6215 10.0941 16.7653 10.0078L16.7797 9.99345C16.8947 9.92156 17.0097 9.83529 17.1391 9.76339C17.1535 9.74902 17.1823 9.73464 17.1967 9.72026C17.3117 9.64837 17.4411 9.5621 17.5561 9.4902C17.7143 9.38955 17.8868 9.2889 18.0594 9.18826C18.1169 9.14512 18.1744 9.11636 18.2463 9.0876C18.3038 9.04447 18.3757 9.01571 18.4332 8.98696C22.0134 6.98835 26.1401 5.85245 30.5255 5.85245C32.3228 5.85245 34.077 6.03937 35.7593 6.41321C36.3344 6.52824 36.9095 6.67202 37.4559 6.84456C37.5134 6.85894 37.5566 6.87332 37.6141 6.8877C44.5589 8.9582 50.2384 13.9907 53.1716 20.5185C53.416 21.0505 53.6317 21.5969 53.833 22.1576C54.8108 24.8177 55.3428 27.679 55.3428 30.6697Z" fill="#E0E0E0" stroke="url(#paint0_linear_1341_26)" stroke-width="0.862709" stroke-miterlimit="10"/>
<path d="M35.4143 50.1521C34.8967 50.3822 33.6745 52.884 32.9556 55.3715C32.783 55.3859 32.6105 55.4003 32.4379 55.4146C32.0929 55.4434 31.7334 55.4578 31.3739 55.4721C31.2445 55.4721 31.1295 55.4865 31.0001 55.4865C30.8419 55.4865 30.6838 55.4865 30.5256 55.4865C28.5989 55.4865 26.7153 55.2708 24.918 54.8539C24.5154 54.7676 24.1272 54.6669 23.739 54.5519C22.6174 53.0853 21.8266 51.2736 22.2148 50.1665C22.675 48.8293 22.79 47.9522 21.8554 47.2477C20.9208 46.5431 19.3104 46.0399 19.5261 43.9118C19.7417 41.7838 18.0738 41.942 17.7 41.3381C17.5131 41.0362 17.0673 40.1878 16.4635 39.8571C15.7733 39.4689 15.1838 39.4401 14.6805 38.8362C14.508 38.6349 14.2923 38.4624 14.0047 38.4049C13.1564 38.2467 13.2139 37.5278 12.5525 36.5501C11.8911 35.5723 11.8911 34.6952 11.8911 34.6952C11.6035 33.5018 9.67681 32.4953 9.67681 32.4953C9.48989 32.3372 9.2167 32.294 8.98665 32.4234C8.72783 32.5529 8.41151 32.596 8.12394 32.2653C7.44815 31.4888 7.63507 31.1725 7.86512 30.698C8.02329 30.3673 8.19583 30.051 8.39713 29.7347C8.69908 29.2314 9.0154 28.3543 8.39713 27.4197C7.44815 25.9675 9.71995 23.4657 9.71995 23.4657C11.6754 21.7402 12.1212 20.9782 10.8558 19.7129C9.59054 18.4476 12.0924 15.7875 12.0924 15.7875C12.1355 15.6294 12.1212 15.4568 12.0493 15.2699C11.8767 14.7811 11.963 14.2491 12.2937 13.8608C12.3081 13.8465 12.3225 13.8321 12.3368 13.8177C12.4087 13.7458 12.4806 13.6595 12.5525 13.5876C12.61 13.5301 12.6675 13.4726 12.7107 13.4151C12.7682 13.3576 12.8113 13.3145 12.8688 13.2569C12.9407 13.185 12.9982 13.1132 13.0701 13.0556C13.142 12.9837 13.1995 12.9262 13.2714 12.8543C13.3289 12.7968 13.3865 12.7393 13.444 12.6962C13.5015 12.6387 13.5446 12.5955 13.6021 12.5524C13.6884 12.4661 13.7747 12.3942 13.8609 12.3223C13.9185 12.2792 13.9616 12.2217 14.0191 12.1786C14.0766 12.1354 14.1198 12.0779 14.1773 12.0348C14.2635 11.9629 14.3498 11.891 14.4361 11.8047C14.4505 11.7903 14.4792 11.776 14.4936 11.7616C14.5943 11.6753 14.7093 11.5747 14.8099 11.4884C14.9106 11.4021 15.0256 11.3158 15.1263 11.2296C15.155 11.2008 15.1838 11.1721 15.2269 11.1577C15.3419 11.0714 15.457 10.9851 15.572 10.8845C15.7014 10.7838 15.8308 10.6976 15.9602 10.5969C16.0896 10.4963 16.219 10.41 16.3628 10.3093C16.4922 10.2231 16.6216 10.1224 16.7654 10.0362L16.7798 10.0218C16.8948 9.94989 17.0098 9.86362 17.1392 9.79172C17.1536 9.77735 17.1824 9.76297 17.1968 9.74859C17.3118 9.6767 17.4412 9.59043 17.5562 9.51853C17.7144 9.41788 17.8869 9.31723 18.0595 9.21659C18.117 9.17345 18.1745 9.14469 18.2464 9.11594C18.2608 9.31723 18.3183 9.50415 18.4764 9.63356C18.9078 9.96427 18.8215 10.8414 18.879 11.1433C18.9366 11.4452 19.2097 11.1145 19.2816 10.7695C19.3535 10.4388 19.5836 9.76297 20.4607 9.69108C21.3378 9.61918 21.4672 8.98653 21.841 9.36037C22.2148 9.73421 23.0488 9.56167 23.3507 9.59043C23.6527 9.61918 24.0265 9.54729 24.2278 10.0218C24.4291 10.4963 24.9611 10.3956 24.7311 10.9708C24.501 11.5459 24.3716 11.5747 24.7886 11.776C25.2056 11.9773 25.0905 12.2648 25.3637 12.6099C26.0683 13.5157 25.5794 14.1915 24.918 13.8752C24.271 13.5589 24.6304 13.5157 23.5664 13.904C22.8331 14.1628 22.488 13.487 22.3443 13.07C22.2292 12.7249 21.7116 12.7968 21.6972 13.1563C21.6828 13.5157 21.6397 13.6164 21.4384 13.8033C21.1652 14.0621 20.8058 14.6085 20.1875 14.0909C19.9718 13.9183 19.6555 13.9471 19.5117 14.1915C19.3967 14.3785 19.3104 14.6373 19.3104 14.968C19.3104 15.7732 18.5771 15.4712 18.1745 16.0751C17.7719 16.679 17.3262 17.628 18.0163 17.858C18.7065 18.0881 19.4829 18.3325 19.713 18.9652C19.8855 19.4397 20.7626 20.0292 21.3521 20.1586C21.9848 20.3024 22.5455 20.6762 22.9481 21.1795C23.1782 21.4527 23.437 21.7978 23.7533 22.2291C25.2631 24.3284 23.5377 24.2996 23.5377 24.2996C23.5377 24.2996 21.5678 24.4578 21.6541 26.1401C21.7404 27.8223 22.1142 28.6707 20.8058 29.9647C19.4973 31.2732 18.4045 29.2602 18.3183 30.6837C18.2751 31.5464 17.9301 31.9921 17.6137 32.2365C17.3837 32.4234 17.168 32.6247 16.9667 32.8548C16.6072 33.2574 15.7445 33.4731 15.0544 33.5018C15.0544 33.5018 13.4152 34.9972 13.9328 36.205C14.4505 37.4128 13.9616 37.5134 14.7237 37.4847C15.4857 37.4559 16.5929 37.5422 18.0595 39.1813C19.5261 40.8205 22.1142 37.5853 24.8173 39.1813C27.5349 40.7773 27.3192 40.4754 28.0956 41.2518C28.8577 42.0283 31.0289 40.4754 32.3948 41.6832C32.4379 41.7263 32.4811 41.7551 32.5242 41.7982C33.7608 42.891 36.6796 42.9197 36.4639 44.5589C36.3776 45.2778 35.6731 47.0751 36.3633 47.5208C36.924 47.8516 36.5071 49.6489 35.4143 50.1521Z" fill="url(#paint1_linear_1341_26)" stroke="url(#paint2_linear_1341_26)" stroke-width="0.862709" stroke-miterlimit="10"/>
<path d="M30.1227 14.0478C30.1514 14.9249 30.2809 15.2412 30.7122 15.5863C31.1436 15.9457 31.3305 16.0895 31.618 16.2621L32.2795 16.6359C32.5527 16.7941 33.3147 15.917 33.3003 15.6006C33.2572 14.7236 32.9552 14.2491 33.0128 13.9615C33.0847 13.6308 33.7173 13.9615 33.5448 13.487C33.3722 13.0125 33.7748 12.7825 34.048 12.2073C34.3212 11.6322 34.0624 11.3734 33.516 11.1002C32.0638 10.3669 33.0559 9.8205 33.0559 9.8205C33.6598 9.79174 33.2716 8.69898 32.869 8.38265C32.4664 8.06632 31.4024 8.77087 30.3671 8.23887C29.3319 7.70686 29.4181 8.61271 29.5475 8.81401C29.5475 8.81401 29.907 10.1224 28.728 10.295C27.5489 10.4675 26.2405 10.4675 26.7869 11.6034C27.3333 12.7393 30.1083 12.9694 30.1227 14.0478Z" fill="url(#paint3_linear_1341_26)" stroke="url(#paint4_linear_1341_26)" stroke-width="0.862709" stroke-miterlimit="10"/>
<path d="M36.8231 13.4583C36.5212 13.3289 36.5643 12.8831 36.895 12.8112C36.9669 12.7969 37.0532 12.7825 37.1395 12.7969C37.5421 12.8256 37.7146 11.8191 38.5485 12.7969C39.3825 13.7746 38.8217 14.4791 38.0741 14.3066C37.3408 14.134 37.5708 13.602 37.0676 13.5302C36.9669 13.5158 36.895 13.487 36.8231 13.4583Z" fill="url(#paint5_linear_1341_26)" stroke="url(#paint6_linear_1341_26)" stroke-width="0.862709" stroke-miterlimit="10"/>
<path d="M42.3163 12.3367C42.6182 12.3798 42.9201 12.4517 43.1933 12.5811C44.056 12.9837 45.6233 14.019 45.7239 16.2045C45.7958 17.7861 46.1122 18.6488 46.3997 19.0946C46.5579 19.339 46.5435 19.641 46.3997 19.8854C46.1409 20.288 46.3997 20.9782 46.6729 21.4958C47.0324 22.2003 46.7017 22.0422 47.3056 22.2722C47.9095 22.5023 48.9303 22.4879 48.7291 21.7834C48.5278 21.0788 49.7212 21.7258 49.8074 21.5533C50.7852 19.6266 48.8728 20.3743 49.2179 19.4109C49.2179 19.4109 48.6428 17.8724 49.3473 18.2031C50.0519 18.5338 50.8283 19.0371 51.1015 19.7129C51.3747 20.3886 51.7054 19.9141 51.6766 19.4397C51.6479 18.9652 52.6831 19.5116 52.755 20.3455C52.7694 20.6187 52.9563 20.6331 53.2008 20.5037C50.2675 13.9758 44.6024 8.94337 37.6432 6.85849C37.6001 6.87287 37.5426 6.85849 37.4851 6.81536C36.9243 6.65719 36.3636 6.51341 35.7884 6.384C35.7309 6.72909 35.7022 7.07417 35.659 7.20358C35.659 7.20358 35.0551 8.18131 35.8459 8.72769C36.6368 9.27408 38.2471 7.96563 39.268 10.1512C40.0588 11.891 41.6405 12.2504 42.3163 12.3367Z" fill="url(#paint7_linear_1341_26)" stroke="url(#paint8_linear_1341_26)" stroke-width="0.862709" stroke-miterlimit="10"/>
<path d="M49.1743 37.2259C50.267 37.8585 49.7494 38.7644 50.1089 39.1382C50.4827 39.512 50.6121 40.5761 51.2448 40.2453C51.8774 39.9146 51.9205 38.4337 52.4813 38.5343C53.0564 38.635 53.5884 37.916 53.5597 38.9369C53.5309 39.9578 52.4957 40.2885 52.7545 41.6688C54.3936 38.3474 55.3282 34.6234 55.3282 30.6693C55.3282 27.6786 54.7962 24.8172 53.8329 22.1716C53.8185 22.1428 53.4015 21.3952 53.1715 22.3729C53.1715 22.3729 52.7833 24.2421 50.2814 23.4369C49.6775 23.25 49.1455 23.8251 49.1024 24.7885C49.0736 25.7662 48.5272 25.6943 48.7717 26.327C48.7717 26.327 50.3677 28.2537 48.7141 30.353C47.0606 32.481 46.7012 35.788 49.1743 37.2259Z" fill="url(#paint9_linear_1341_26)" stroke="url(#paint10_linear_1341_26)" stroke-width="0.862709" stroke-miterlimit="10"/>
<path d="M26.6292 47.4202L27.7363 48.2685" stroke="white" stroke-width="0.359462" stroke-miterlimit="10" stroke-linecap="round"/>
<path d="M26.6292 46.3706L28.8291 48.0529" stroke="white" stroke-width="0.359462" stroke-miterlimit="10" stroke-linecap="round"/>
<path d="M28.2251 46.5144L28.829 46.9745" stroke="white" stroke-width="0.359462" stroke-miterlimit="10" stroke-linecap="round"/>
<path d="M28.5637 27.4499V36.1502L36.0995 40.5003L43.6354 36.1502V27.4499L36.0995 23.0997L28.5637 27.4499Z" fill="#D0D0D0"/>
<path d="M30.7456 37.4084L36.0996 40.5003L41.4537 37.4084V31.8H30.7456V37.4084Z" fill="#D0D0D0"/>
<path d="M36.0996 37.154C39.0566 37.154 41.4537 34.757 41.4537 31.8C41.4537 28.843 39.0566 26.446 36.0996 26.446C33.1427 26.446 30.7456 28.843 30.7456 31.8C30.7456 34.757 33.1427 37.154 36.0996 37.154Z" fill="#D0D0D0"/>
<path d="M36.0994 33.3481C35.3199 33.3487 34.5499 33.5195 33.8432 33.8486C33.1365 34.1776 32.5102 34.657 32.0081 35.2533C32.5106 35.8487 33.1371 36.3273 33.8438 36.6555C34.5505 36.9838 35.3203 37.1539 36.0994 37.1539C36.8786 37.1539 37.6484 36.9838 38.3551 36.6555C39.0617 36.3273 39.6882 35.8487 40.1908 35.2533C39.6887 34.657 39.0624 34.1776 38.3557 33.8486C37.649 33.5195 36.879 33.3487 36.0994 33.3481V33.3481Z" fill="url(#paint11_linear_1341_26)"/>
<path d="M36.0997 33.3481C35.4254 33.3501 34.7577 33.4803 34.1321 33.7319C34.2974 34.1166 34.5719 34.4444 34.9216 34.6748C35.2714 34.9051 35.6809 35.0279 36.0997 35.0279C36.5185 35.0279 36.928 34.9051 37.2777 34.6748C37.6275 34.4444 37.902 34.1166 38.0673 33.7319C37.4417 33.4803 36.774 33.3501 36.0997 33.3481V33.3481Z" fill="url(#paint12_linear_1341_26)"/>
<path d="M36.0994 32.8752C37.2822 32.8752 38.241 31.9164 38.241 30.7336C38.241 29.5508 37.2822 28.592 36.0994 28.592C34.9166 28.592 33.9578 29.5508 33.9578 30.7336C33.9578 31.9164 34.9166 32.8752 36.0994 32.8752Z" fill="url(#paint13_linear_1341_26)"/>
<path d="M46.498 40.2614L58.504 51.8936C59.223 52.5837 59.2373 53.734 58.5472 54.4529C57.857 55.1719 56.7067 55.1862 55.9878 54.4961L43.8955 42.7776C44.4994 42.3319 45.0745 41.8286 45.6065 41.2823C45.9229 40.9516 46.2248 40.6065 46.498 40.2614Z" fill="url(#paint14_linear_1341_26)" stroke="#5A5A5A" stroke-width="0.862709" stroke-miterlimit="10" stroke-linecap="round"/>
<path d="M25.9941 22.2595C20.7459 27.6802 20.8753 36.3216 26.296 41.5698C31.1559 46.2859 38.6184 46.6598 43.8953 42.7632C44.4992 42.3175 45.0743 41.8142 45.6063 41.2678C45.9226 40.9371 46.2246 40.5921 46.5121 40.247C50.8257 34.8119 50.4087 26.8894 45.3187 21.9575C39.898 16.7238 31.2422 16.8532 25.9941 22.2595ZM43.8809 39.6143C39.553 44.0716 32.4356 44.1867 27.9639 39.8588C23.4922 35.5308 23.3915 28.4135 27.7195 23.9418C32.0474 19.4701 39.1647 19.3694 43.6364 23.6973C48.0938 28.0253 48.2088 35.1426 43.8809 39.6143Z" fill="#BDBDBD" stroke="#5A5A5A" stroke-width="0.862709" stroke-miterlimit="10" stroke-linecap="round"/>
<g clip-path="url(#clip0_1341_26)">
<rect x="183.156" y="14.8298" width="26.0852" height="27.3116" rx="13.0426" transform="rotate(6 183.156 14.8298)" fill="#FBCCCC"/>
<path d="M220.256 15.0402L179.792 10.7874L176.48 42.297L216.944 46.5498L220.256 15.0402Z" fill="#F7F7F7"/>
<path d="M220.256 15.0402L179.792 10.7874L177.308 34.4196L217.772 38.6724L220.256 15.0402Z" fill="url(#paint15_linear_1341_26)"/>
<path d="M220.256 15.0402L179.792 10.7874L178.136 26.5422L218.6 30.795L220.256 15.0402Z" fill="#5F5F5F"/>
</g>
<rect x="184.396" y="16.3613" width="23.2983" height="24.5247" rx="11.6491" transform="rotate(6 184.396 16.3613)" stroke="url(#paint16_linear_1341_26)" stroke-width="2.7869"/>
<path d="M72.1508 42.2537C69.4816 42.2537 67.521 41.5805 66.2691 40.2341C65.0172 38.8877 64.3912 36.6555 64.3912 33.5375C64.3912 31.0573 64.8046 28.3881 65.6313 25.53C66.4817 22.6718 67.8281 20.227 69.6705 18.1956C71.5366 16.1406 73.8987 15.113 76.7569 15.113C78.5285 15.113 79.9576 15.5028 81.0441 16.2823C82.1307 17.0618 82.674 18.2546 82.674 19.8609C82.674 20.8766 82.4732 21.6797 82.0717 22.2702C81.6701 22.8371 81.0441 23.1206 80.1938 23.1206C79.3434 23.1206 78.6702 22.8135 78.1742 22.1994C78.5993 21.9868 78.9773 21.5616 79.308 20.9238C79.6387 20.2861 79.804 19.6247 79.804 18.9397C79.804 18.3019 79.6269 17.7822 79.2725 17.3807C78.9418 16.9791 78.3986 16.7783 77.6427 16.7783C76.3908 16.7783 75.1979 17.6405 74.0641 19.3648C72.9303 21.0656 72.009 23.2151 71.3004 25.8134C70.6154 28.4117 70.2729 30.9156 70.2729 33.3249C70.2729 35.1201 70.58 36.4902 71.1941 37.435C71.8083 38.3799 72.9185 38.8523 74.5247 38.8523C75.9183 38.8523 77.2057 38.5452 78.3868 37.9311C79.5678 37.3169 80.5835 36.4429 81.4339 35.3091L82.2488 35.6634C81.6583 37.1516 80.7843 38.3917 79.6269 39.3838C78.4694 40.3759 77.2293 41.1081 75.9065 41.5805C74.5837 42.0293 73.3318 42.2537 72.1508 42.2537ZM87.2472 22.0577C86.4677 22.0577 85.8063 21.786 85.263 21.2427C84.7197 20.6994 84.4481 20.038 84.4481 19.2585C84.4481 18.479 84.7197 17.8177 85.263 17.2744C85.8063 16.7075 86.4677 16.424 87.2472 16.424C88.0267 16.424 88.6881 16.7075 89.2314 17.2744C89.7983 17.8177 90.0817 18.479 90.0817 19.2585C90.0817 20.038 89.7983 20.6994 89.2314 21.2427C88.6881 21.786 88.0267 22.0577 87.2472 22.0577ZM84.8378 41.8994C83.704 41.8994 82.7828 41.5451 82.0741 40.8365C81.3891 40.1278 81.0466 39.0649 81.0466 37.6476C81.0466 37.0571 81.1411 36.2894 81.3301 35.3445L83.7394 23.971H88.8416L86.2905 36.0178C86.196 36.3721 86.1488 36.75 86.1488 37.1516C86.1488 37.624 86.2551 37.9665 86.4677 38.1791C86.7039 38.3681 87.0818 38.4625 87.6015 38.4625C88.2865 38.4625 88.9243 38.1791 89.5148 37.6122C90.1053 37.0217 90.5305 36.2658 90.7903 35.3445H92.2785C91.4045 37.8956 90.2825 39.6318 88.9125 40.553C87.5424 41.4506 86.1842 41.8994 84.8378 41.8994ZM95.843 41.8994C94.095 41.8994 92.7368 41.4506 91.7683 40.553C90.7999 39.6318 90.3156 38.2027 90.3156 36.2658C90.3156 34.6359 90.6345 32.8407 91.2723 30.8802C91.91 28.9196 92.9494 27.2307 94.3903 25.8134C95.8312 24.3725 97.6618 23.6521 99.8822 23.6521C102.481 23.6521 103.78 24.7859 103.78 27.0535C103.78 28.3763 103.402 29.5928 102.646 30.703C101.89 31.8132 100.886 32.7108 99.6342 33.3958C98.3822 34.0572 97.0476 34.4351 95.6304 34.5296C95.5831 35.2383 95.5595 35.7107 95.5595 35.9469C95.5595 37.1043 95.7603 37.8956 96.1619 38.3208C96.5634 38.7224 97.213 38.9232 98.1106 38.9232C99.3861 38.9232 100.473 38.6279 101.37 38.0374C102.292 37.4468 103.295 36.5492 104.382 35.3445H105.587C102.965 39.7145 99.7168 41.8994 95.843 41.8994ZM95.9138 32.8289C96.7878 32.7817 97.6146 32.4746 98.3941 31.9077C99.1972 31.3408 99.8349 30.6203 100.307 29.7463C100.803 28.8724 101.051 27.9511 101.051 26.9827C101.051 26.0142 100.756 25.53 100.166 25.53C99.3153 25.53 98.4767 26.274 97.65 27.7622C96.8469 29.2503 96.2681 30.9392 95.9138 32.8289ZM117.165 41.8994C115.725 41.8994 114.662 41.5215 113.977 40.7656C113.315 39.9861 112.984 39.0294 112.984 37.8956C112.984 37.3996 113.044 36.8445 113.162 36.2303C113.28 35.5926 113.398 34.9784 113.516 34.3879C113.658 33.7974 113.752 33.4194 113.799 33.2541C113.988 32.4273 114.166 31.6124 114.331 30.8093C114.496 30.0062 114.579 29.3566 114.579 28.8605C114.579 27.6559 114.154 27.0535 113.303 27.0535C112.689 27.0535 112.146 27.3606 111.673 27.9748C111.201 28.5653 110.823 29.3448 110.54 30.3132L108.13 41.6868H103.028L106.784 23.971H111.886L111.496 25.8134C112.677 24.4906 114.059 23.8292 115.642 23.8292C116.847 23.8292 117.803 24.1599 118.512 24.8213C119.22 25.4827 119.575 26.4866 119.575 27.833C119.575 28.518 119.492 29.2857 119.327 30.1361C119.161 30.9628 118.925 31.9785 118.618 33.1832C118.429 33.9155 118.252 34.6359 118.087 35.3445C117.945 36.0296 117.874 36.5728 117.874 36.9744C117.874 37.4468 117.98 37.813 118.193 38.0728C118.406 38.3326 118.772 38.4625 119.291 38.4625C120 38.4625 120.567 38.2145 120.992 37.7185C121.417 37.1988 121.842 36.4075 122.268 35.3445H123.756C122.882 37.9429 121.866 39.6908 120.709 40.5884C119.575 41.4624 118.394 41.8994 117.165 41.8994ZM127.33 41.8994C125.582 41.8994 124.224 41.4506 123.255 40.553C122.287 39.6318 121.803 38.2027 121.803 36.2658C121.803 34.6359 122.122 32.8407 122.759 30.8802C123.421 28.9196 124.46 27.2307 125.877 25.8134C127.318 24.3725 129.137 23.6521 131.334 23.6521C132.751 23.6521 133.755 23.9592 134.346 24.5733C134.96 25.1875 135.267 25.967 135.267 26.9118C135.267 27.7385 135.09 28.3763 134.735 28.8251C134.381 29.2739 133.932 29.4983 133.389 29.4983C132.987 29.4983 132.574 29.3566 132.149 29.0731C132.432 28.2936 132.574 27.5968 132.574 26.9827C132.574 26.5339 132.491 26.1795 132.326 25.9197C132.161 25.6599 131.913 25.53 131.582 25.53C130.873 25.53 130.165 26.1087 129.456 27.2661C128.747 28.4236 128.169 29.829 127.72 31.4825C127.271 33.136 127.047 34.6241 127.047 35.9469C127.047 37.1043 127.247 37.8956 127.649 38.3208C128.051 38.7224 128.7 38.9232 129.598 38.9232C130.873 38.9232 131.96 38.6279 132.857 38.0374C133.779 37.4468 134.783 36.5492 135.869 35.3445H137.074C134.452 39.7145 131.204 41.8994 127.33 41.8994ZM141.779 22.0577C140.999 22.0577 140.338 21.786 139.795 21.2427C139.251 20.6994 138.98 20.038 138.98 19.2585C138.98 18.479 139.251 17.8177 139.795 17.2744C140.338 16.7075 140.999 16.424 141.779 16.424C142.558 16.424 143.22 16.7075 143.763 17.2744C144.33 17.8177 144.613 18.479 144.613 19.2585C144.613 20.038 144.33 20.6994 143.763 21.2427C143.22 21.786 142.558 22.0577 141.779 22.0577ZM139.369 41.8994C138.236 41.8994 137.314 41.5451 136.606 40.8365C135.921 40.1278 135.578 39.0649 135.578 37.6476C135.578 37.0571 135.673 36.2894 135.862 35.3445L138.271 23.971H143.373L140.822 36.0178C140.728 36.3721 140.68 36.75 140.68 37.1516C140.68 37.624 140.787 37.9665 140.999 38.1791C141.236 38.3681 141.613 38.4625 142.133 38.4625C142.818 38.4625 143.456 38.1791 144.046 37.6122C144.637 37.0217 145.062 36.2658 145.322 35.3445H146.81C145.936 37.8956 144.814 39.6318 143.444 40.553C142.074 41.4506 140.716 41.8994 139.369 41.8994ZM149.56 41.8994C148.213 41.8994 147.091 41.4388 146.194 40.5176C145.296 39.5964 144.847 38.1555 144.847 36.1949C144.847 34.4469 145.19 32.6163 145.875 30.703C146.583 28.7661 147.623 27.1362 148.993 25.8134C150.386 24.467 152.04 23.7938 153.953 23.7938C154.922 23.7938 155.642 23.9592 156.115 24.2899C156.587 24.6205 156.823 25.0575 156.823 25.6008V25.8488L157.213 23.971H162.315L159.764 36.0178C159.67 36.3721 159.622 36.75 159.622 37.1516C159.622 37.624 159.729 37.9665 159.941 38.1791C160.177 38.3681 160.555 38.4625 161.075 38.4625C161.406 38.4625 161.666 38.4153 161.854 38.3208C161.335 39.6436 160.839 40.5766 160.366 41.1199C159.894 41.6396 159.209 41.8994 158.311 41.8994C157.343 41.8994 156.552 41.616 155.937 41.0491C155.347 40.4585 154.981 39.6436 154.839 38.6043C153.398 40.801 151.638 41.8994 149.56 41.8994ZM151.863 38.4625C152.453 38.4625 153.032 38.1909 153.599 37.6476C154.189 37.0807 154.591 36.313 154.804 35.3445L156.504 27.337C156.504 27.0299 156.386 26.7346 156.15 26.4512C155.914 26.1441 155.548 25.9906 155.052 25.9906C154.107 25.9906 153.256 26.5457 152.501 27.6559C151.745 28.7424 151.154 30.0652 150.729 31.6242C150.304 33.1596 150.091 34.5178 150.091 35.6989C150.091 36.8799 150.256 37.6358 150.587 37.9665C150.942 38.2972 151.367 38.4625 151.863 38.4625ZM170.28 42.2537C167.611 42.2537 165.65 41.5805 164.398 40.2341C163.146 38.8877 162.52 36.6555 162.52 33.5375C162.52 31.0573 162.934 28.3881 163.761 25.53C164.611 22.6718 165.957 20.227 167.8 18.1956C169.666 16.1406 172.028 15.113 174.886 15.113C176.658 15.113 178.087 15.5028 179.173 16.2823C180.26 17.0618 180.803 18.2546 180.803 19.8609C180.803 20.8766 180.602 21.6797 180.201 22.2702C179.799 22.8371 179.173 23.1206 178.323 23.1206C177.473 23.1206 176.799 22.8135 176.303 22.1994C176.729 21.9868 177.107 21.5616 177.437 20.9238C177.768 20.2861 177.933 19.6247 177.933 18.9397C177.933 18.3019 177.756 17.7822 177.402 17.3807C177.071 16.9791 176.528 16.7783 175.772 16.7783C174.52 16.7783 173.327 17.6405 172.193 19.3648C171.06 21.0656 170.138 23.2151 169.43 25.8134C168.745 28.4117 168.402 30.9156 168.402 33.3249C168.402 35.1201 168.709 36.4902 169.323 37.435C169.938 38.3799 171.048 38.8523 172.654 38.8523C174.048 38.8523 175.335 38.5452 176.516 37.9311C177.697 37.3169 178.713 36.4429 179.563 35.3091L180.378 35.6634C179.788 37.1516 178.914 38.3917 177.756 39.3838C176.599 40.3759 175.359 41.1081 174.036 41.5805C172.713 42.0293 171.461 42.2537 170.28 42.2537Z" fill="url(#paint17_linear_1341_26)"/>
<defs>
<linearGradient id="paint0_linear_1341_26" x1="30.5255" y1="5.85245" x2="30.5255" y2="55.4726" gradientUnits="userSpaceOnUse">
<stop stop-color="#282828"/>
<stop offset="1" stop-color="#242424" stop-opacity="0.21"/>
</linearGradient>
<linearGradient id="paint1_linear_1341_26" x1="22.1332" y1="9.11594" x2="22.1332" y2="55.4865" gradientUnits="userSpaceOnUse">
<stop stop-color="#282828"/>
<stop offset="1" stop-color="#242424" stop-opacity="0.21"/>
</linearGradient>
<linearGradient id="paint2_linear_1341_26" x1="22.1332" y1="9.11594" x2="22.1332" y2="55.4865" gradientUnits="userSpaceOnUse">
<stop stop-color="#282828"/>
<stop offset="1" stop-color="#242424" stop-opacity="0.21"/>
</linearGradient>
<linearGradient id="paint3_linear_1341_26" x1="30.4084" y1="8.0737" x2="30.4084" y2="16.6548" gradientUnits="userSpaceOnUse">
<stop stop-color="#282828"/>
<stop offset="1" stop-color="#242424" stop-opacity="0.21"/>
</linearGradient>
<linearGradient id="paint4_linear_1341_26" x1="30.4084" y1="8.0737" x2="30.4084" y2="16.6548" gradientUnits="userSpaceOnUse">
<stop stop-color="#282828"/>
<stop offset="1" stop-color="#242424" stop-opacity="0.21"/>
</linearGradient>
<linearGradient id="paint5_linear_1341_26" x1="37.7917" y1="12.3686" x2="37.7917" y2="14.3327" gradientUnits="userSpaceOnUse">
<stop stop-color="#282828"/>
<stop offset="1" stop-color="#242424" stop-opacity="0.21"/>
</linearGradient>
<linearGradient id="paint6_linear_1341_26" x1="37.7917" y1="12.3686" x2="37.7917" y2="14.3327" gradientUnits="userSpaceOnUse">
<stop stop-color="#282828"/>
<stop offset="1" stop-color="#242424" stop-opacity="0.21"/>
</linearGradient>
<linearGradient id="paint7_linear_1341_26" x1="44.3196" y1="6.384" x2="44.3196" y2="22.4049" gradientUnits="userSpaceOnUse">
<stop stop-color="#282828"/>
<stop offset="1" stop-color="#242424" stop-opacity="0.21"/>
</linearGradient>
<linearGradient id="paint8_linear_1341_26" x1="44.3196" y1="6.384" x2="44.3196" y2="22.4049" gradientUnits="userSpaceOnUse">
<stop stop-color="#282828"/>
<stop offset="1" stop-color="#242424" stop-opacity="0.21"/>
</linearGradient>
<linearGradient id="paint9_linear_1341_26" x1="51.3624" y1="21.8712" x2="51.3624" y2="41.6688" gradientUnits="userSpaceOnUse">
<stop stop-color="#282828"/>
<stop offset="1" stop-color="#242424" stop-opacity="0.21"/>
</linearGradient>
<linearGradient id="paint10_linear_1341_26" x1="51.3624" y1="21.8712" x2="51.3624" y2="41.6688" gradientUnits="userSpaceOnUse">
<stop stop-color="#282828"/>
<stop offset="1" stop-color="#242424" stop-opacity="0.21"/>
</linearGradient>
<linearGradient id="paint11_linear_1341_26" x1="36.0002" y1="46" x2="36.0994" y2="7.6175" gradientUnits="userSpaceOnUse">
<stop stop-color="#8A8787"/>
<stop offset="1" stop-color="#2B2B2B"/>
</linearGradient>
<linearGradient id="paint12_linear_1341_26" x1="36.0997" y1="36.3509" x2="36.0997" y2="30.5194" gradientUnits="userSpaceOnUse">
<stop offset="0.479167" stop-color="white"/>
</linearGradient>
<linearGradient id="paint13_linear_1341_26" x1="36.0994" y1="28.592" x2="36.0994" y2="32.8752" gradientUnits="userSpaceOnUse">
<stop stop-color="#282828"/>
<stop offset="1" stop-color="#242424" stop-opacity="0.21"/>
</linearGradient>
<linearGradient id="paint14_linear_1341_26" x1="48" y1="32" x2="53" y2="64.5" gradientUnits="userSpaceOnUse">
<stop stop-color="#4E4E4E"/>
<stop offset="1" stop-color="white" stop-opacity="0"/>
</linearGradient>
<linearGradient id="paint15_linear_1341_26" x1="200.024" y1="12.9138" x2="196" y2="52" gradientUnits="userSpaceOnUse">
<stop stop-color="#5F5F5F"/>
<stop offset="1" stop-color="white" stop-opacity="0"/>
</linearGradient>
<linearGradient id="paint16_linear_1341_26" x1="196.198" y1="14.8298" x2="196.198" y2="42.1414" gradientUnits="userSpaceOnUse">
<stop stop-color="#010101"/>
<stop offset="1" stop-color="#535353" stop-opacity="0.1"/>
</linearGradient>
<linearGradient id="paint17_linear_1341_26" x1="121.718" y1="6.68683" x2="121.718" y2="50.6868" gradientUnits="userSpaceOnUse">
<stop stop-color="#010101"/>
<stop offset="1" stop-color="#838383" stop-opacity="0.1"/>
</linearGradient>
<clipPath id="clip0_1341_26">
<rect x="183.156" y="14.8298" width="26.0852" height="27.3116" rx="13.0426" transform="rotate(6 183.156 14.8298)" fill="white"/>
</clipPath>
</defs>
</svg>
