<svg width="295" height="108" viewBox="0 0 295 108" fill="none" xmlns="http://www.w3.org/2000/svg">
<g filter="url(#filter0_d_1346_134)">
<path d="M17.8389 86.0904C16.2526 86.0904 14.7274 85.9379 13.2631 85.6328C11.7989 85.3278 10.4871 84.7787 9.32793 83.9855C8.22975 83.1924 7.31459 82.0942 6.58246 80.691C5.91135 79.2877 5.57579 77.4574 5.57579 75.2V30.6319C5.57579 28.5575 6.00286 26.8187 6.85701 25.4155C7.71116 23.9512 8.77884 22.8225 10.0601 22.0294C11.3413 21.1752 12.7445 20.5651 14.2698 20.1991C15.8561 19.833 17.3508 19.65 18.7541 19.65V86.0904H17.8389ZM19.6692 48.0199H27.082C27.082 50.5213 26.6244 52.6261 25.7093 54.3344C24.7941 55.9817 22.9333 56.8054 20.1268 56.8054H19.6692V48.0199ZM27.7226 34.9331C27.7226 34.262 27.6616 33.5909 27.5396 32.9198C27.4786 32.1876 27.2955 31.547 26.9905 30.9979C26.7464 30.3878 26.3499 29.8997 25.8008 29.5337C25.3127 29.1676 24.6111 28.9846 23.6959 28.9846C22.5367 28.9846 21.5605 29.3506 20.7674 30.0828C20.4013 29.1066 20.2183 28.2219 20.2183 27.4288C20.2183 26.4526 20.3708 25.507 20.6759 24.5918C21.042 23.6157 21.591 22.7615 22.3232 22.0294C23.0553 21.2973 23.9705 20.7177 25.0686 20.2906C26.2278 19.8025 27.6311 19.5584 29.2784 19.5584C31.1087 19.5584 32.7255 19.894 34.1287 20.5651C35.593 21.1752 36.8132 22.0599 37.7893 23.2191C38.7655 24.3173 39.4976 25.629 39.9857 27.1543C40.5348 28.6185 40.8094 30.2048 40.8094 31.9131V86.0904C39.1621 86.0904 37.5453 85.9684 35.959 85.7243C34.4338 85.4803 33.0305 84.9922 31.7493 84.2601C30.5291 83.467 29.5529 82.3078 28.8208 80.7825C28.0887 79.2572 27.7226 77.2134 27.7226 74.6509V34.9331Z" fill="url(#paint0_linear_1346_134)"/>
<path d="M50.372 20.9379C51.9583 20.9379 53.4836 21.0904 54.9478 21.3955C56.4121 21.7005 57.7238 22.2496 58.883 23.0428C59.9812 23.8359 60.8963 24.9341 61.6285 26.3373C62.2996 27.7406 62.6351 29.5709 62.6351 31.8283L62.6351 76.3965C62.6351 78.4708 62.2081 80.2096 61.3539 81.6129C60.4998 83.0771 59.4321 84.2058 58.1509 84.9989C56.8697 85.8531 55.4664 86.4632 53.9412 86.8293C52.3549 87.1953 50.8601 87.3784 49.4569 87.3784L49.4569 20.9379H50.372ZM48.5417 59.0085H41.1289C41.1289 56.507 41.5865 54.4022 42.5017 52.6939C43.4168 51.0466 45.2777 50.223 48.0841 50.223H48.5417V59.0085ZM40.4883 72.0952C40.4883 72.7663 40.5493 73.4375 40.6714 74.1086C40.7324 74.8407 40.9154 75.4813 41.2205 76.0304C41.4645 76.6405 41.8611 77.1286 42.4102 77.4947C42.8983 77.8607 43.5999 78.0437 44.515 78.0437C45.6742 78.0437 46.6504 77.6777 47.4435 76.9456C47.8096 77.9217 47.9926 78.8064 47.9926 79.5995C47.9926 80.5757 47.8401 81.5213 47.535 82.4365C47.169 83.4127 46.6199 84.2668 45.8878 84.9989C45.1556 85.7311 44.2405 86.3107 43.1423 86.7377C41.9831 87.2258 40.5799 87.4699 38.9326 87.4699C37.1023 87.4699 35.4855 87.1343 34.0822 86.4632C32.618 85.8531 31.3978 84.9684 30.4216 83.8092C29.4454 82.711 28.7133 81.3993 28.2252 79.8741C27.6761 78.4098 27.4016 76.8235 27.4016 75.1152L27.4016 20.9379C29.0489 20.9379 30.6656 21.0599 32.2519 21.304C33.7772 21.548 35.1804 22.0361 36.4616 22.7682C37.6819 23.5614 38.658 24.7206 39.3901 26.2458C40.1223 27.7711 40.4883 29.8149 40.4883 32.3774L40.4883 72.0952Z" fill="url(#paint1_linear_1346_134)"/>
</g>
<path d="M80.712 50.552C80.712 50.8933 79.6987 51.064 77.672 51.064C75.624 51.064 74.6 50.904 74.6 50.584V29.72C74.6 28.9733 74.9947 28.6 75.784 28.6H81.896C87.5067 28.6 90.312 30.7867 90.312 35.16C90.312 36.4827 90.056 37.688 89.544 38.776C89.032 39.8427 88.3067 40.696 87.368 41.336L91.4 48.056C91.2293 48.568 90.6747 49.1547 89.736 49.816C88.456 50.7333 87.4 51.192 86.568 51.192C85.736 51.192 85.1173 50.8933 84.712 50.296L81.704 43.288H80.712V50.552ZM80.712 34.264V39.064H80.872C82.8987 39.064 83.912 38.2213 83.912 36.536C83.912 35.768 83.7093 35.2027 83.304 34.84C82.92 34.456 82.28 34.264 81.384 34.264H80.712ZM105.411 50.136C104.067 50.9253 102.339 51.32 100.227 51.32C98.115 51.32 96.3337 50.6053 94.883 49.176C93.4323 47.7253 92.707 45.7307 92.707 43.192C92.707 40.632 93.4003 38.5733 94.787 37.016C96.195 35.4587 97.9657 34.68 100.099 34.68C102.232 34.68 103.875 35.224 105.027 36.312C106.2 37.4 106.787 38.7227 106.787 40.28C106.787 43.736 104.803 45.464 100.835 45.464H98.627C98.627 46.104 98.7977 46.552 99.139 46.808C99.5017 47.0427 100.024 47.16 100.707 47.16C102.2 47.16 103.619 46.8187 104.963 46.136C104.984 46.1147 105.08 46.264 105.251 46.584C105.763 47.5013 106.019 48.28 106.019 48.92C106.019 49.5387 105.816 49.944 105.411 50.136ZM101.411 40.888C101.411 39.992 100.974 39.544 100.099 39.544C99.6937 39.544 99.3417 39.672 99.043 39.928C98.7657 40.1627 98.627 40.5147 98.627 40.984V41.976H100.355C101.059 41.976 101.411 41.6133 101.411 40.888ZM123.374 50.84C123.374 50.9893 122.456 51.064 120.622 51.064C118.808 51.064 117.902 50.968 117.902 50.776V41.464C117.902 40.3973 117.55 39.864 116.845 39.864C116.483 39.864 116.003 40.0987 115.406 40.568V50.808C115.406 51.0213 114.488 51.128 112.654 51.128C110.84 51.128 109.934 51.0107 109.934 50.776V40.312H109.134C108.43 40.312 108.078 39.576 108.078 38.104C108.078 37.4427 108.206 36.7707 108.462 36.088C108.803 35.1493 109.358 34.68 110.126 34.68C110.894 34.68 111.63 34.8827 112.334 35.288C113.059 35.6933 113.496 36.0773 113.646 36.44C114.968 35.2667 116.43 34.68 118.03 34.68C119.651 34.68 120.952 35.1813 121.934 36.184C123.086 35.1813 124.472 34.68 126.094 34.68C129.614 34.68 131.374 36.824 131.374 41.112V50.84C131.374 50.9893 130.456 51.064 128.622 51.064C126.808 51.064 125.902 50.968 125.902 50.776V41.464C125.902 40.3973 125.55 39.864 124.846 39.864C124.462 39.864 123.971 40.0987 123.374 40.568V50.84ZM135.472 49.112C134.15 47.64 133.488 45.6027 133.488 43C133.488 40.3973 134.15 38.36 135.472 36.888C136.816 35.416 138.619 34.68 140.88 34.68C143.142 34.68 144.934 35.416 146.256 36.888C147.579 38.36 148.24 40.3973 148.24 43C148.24 45.6027 147.579 47.64 146.256 49.112C144.934 50.584 143.142 51.32 140.88 51.32C138.619 51.32 136.816 50.584 135.472 49.112ZM140.88 40.024C139.686 40.024 139.088 41.0053 139.088 42.968C139.088 44.9307 139.686 45.912 140.88 45.912C142.096 45.912 142.704 44.9307 142.704 42.968C142.704 41.0053 142.096 40.024 140.88 40.024ZM158.599 28.792C158.599 28.472 159.441 28.312 161.127 28.312C161.703 28.312 162.364 28.3547 163.111 28.44C163.879 28.504 164.263 28.6 164.263 28.728V45.592H165.383C165.916 45.592 166.268 46.072 166.439 47.032C166.481 47.3093 166.503 47.6933 166.503 48.184C166.503 48.6533 166.353 49.2293 166.055 49.912C165.628 50.8507 164.945 51.32 164.007 51.32C163.303 51.32 162.673 51.1813 162.119 50.904C161.585 50.6267 161.223 50.3387 161.031 50.04L160.743 49.624C159.569 50.7547 158.097 51.32 156.327 51.32C154.556 51.32 153.041 50.584 151.783 49.112C150.524 47.64 149.895 45.592 149.895 42.968C149.895 40.3227 150.556 38.2853 151.879 36.856C153.201 35.4053 154.855 34.68 156.839 34.68C157.415 34.68 158.001 34.744 158.599 34.872V28.792ZM157.543 39.8C156.348 39.8 155.751 40.8773 155.751 43.032C155.751 44.12 155.921 44.9093 156.263 45.4C156.604 45.8693 156.977 46.104 157.383 46.104C157.809 46.104 158.215 45.9227 158.599 45.56V40.12C158.236 39.9067 157.884 39.8 157.543 39.8ZM180.692 50.136C179.348 50.9253 177.62 51.32 175.508 51.32C173.396 51.32 171.615 50.6053 170.164 49.176C168.714 47.7253 167.988 45.7307 167.988 43.192C167.988 40.632 168.682 38.5733 170.068 37.016C171.476 35.4587 173.247 34.68 175.38 34.68C177.514 34.68 179.156 35.224 180.308 36.312C181.482 37.4 182.068 38.7227 182.068 40.28C182.068 43.736 180.084 45.464 176.116 45.464H173.908C173.908 46.104 174.079 46.552 174.42 46.808C174.783 47.0427 175.306 47.16 175.988 47.16C177.482 47.16 178.9 46.8187 180.244 46.136C180.266 46.1147 180.362 46.264 180.532 46.584C181.044 47.5013 181.3 48.28 181.3 48.92C181.3 49.5387 181.098 49.944 180.692 50.136ZM176.692 40.888C176.692 39.992 176.255 39.544 175.38 39.544C174.975 39.544 174.623 39.672 174.324 39.928C174.047 40.1627 173.908 40.5147 173.908 40.984V41.976H175.636C176.34 41.976 176.692 41.6133 176.692 40.888ZM189.983 50.744C189.983 50.936 188.895 51.032 186.719 51.032C185.012 51.0107 184.159 50.9253 184.159 50.776V28.984C184.159 28.664 185.193 28.504 187.263 28.504C189.076 28.568 189.983 28.6747 189.983 28.824V50.744ZM194.894 39.384C194.296 38.3173 193.998 37.4533 193.998 36.792C193.998 36.1093 194.179 35.672 194.542 35.48C195.758 34.9467 197.422 34.68 199.534 34.68C201.667 34.68 203.171 35.1813 204.046 36.184C204.92 37.1653 205.358 38.6267 205.358 40.568V45.624H206.446C206.808 45.624 207.086 45.8373 207.278 46.264C207.491 46.6907 207.597 47.2773 207.597 48.024C207.597 48.7707 207.406 49.5067 207.022 50.232C206.659 50.9573 206.158 51.32 205.518 51.32C204.366 51.32 203.438 51.0107 202.734 50.392C202.414 50.136 202.168 49.8267 201.998 49.464C201.016 50.7013 199.491 51.32 197.422 51.32C195.864 51.32 194.552 50.7653 193.486 49.656C192.419 48.5467 191.886 47.2347 191.886 45.72C191.886 42.2427 193.966 40.504 198.126 40.504H199.885V40.184C199.885 39.6293 199.79 39.2773 199.598 39.128C199.427 38.9573 199.011 38.872 198.35 38.872C197.539 38.872 196.387 39.0427 194.894 39.384ZM197.454 45.272C197.454 45.7413 197.582 46.104 197.838 46.36C198.094 46.5947 198.414 46.712 198.798 46.712C199.203 46.712 199.566 46.552 199.885 46.232V43.768H198.99C197.966 43.768 197.454 44.2693 197.454 45.272ZM214.657 43.064C214.657 45.1547 215.446 46.2 217.025 46.2C218.049 46.2 218.902 45.9973 219.585 45.592C219.905 45.592 220.161 46.1467 220.353 47.256C220.566 48.344 220.673 49.0907 220.673 49.496C220.673 49.88 220.619 50.136 220.513 50.264C219.382 50.968 217.835 51.32 215.873 51.32C213.91 51.32 212.235 50.5947 210.849 49.144C209.483 47.672 208.801 45.6773 208.801 43.16C208.801 40.6213 209.473 38.5733 210.817 37.016C212.182 35.4587 213.985 34.68 216.225 34.68C218.486 34.68 220.054 35.224 220.929 36.312C221.121 36.5467 221.217 36.8987 221.217 37.368C221.217 37.816 221.131 38.3707 220.961 39.032C220.577 40.3973 220.075 41.1867 219.457 41.4C219.371 41.4213 219.243 41.432 219.073 41.432C218.923 41.432 218.731 41.304 218.497 41.048C217.665 40.216 216.993 39.8 216.481 39.8C215.99 39.8 215.563 40.056 215.201 40.568C214.838 41.08 214.657 41.912 214.657 43.064ZM228.827 50.808C228.827 50.9787 227.846 51.064 225.883 51.064C223.942 51.064 222.971 50.9893 222.971 50.84V35.128C222.971 34.9787 223.942 34.904 225.883 34.904C227.846 34.904 228.827 34.968 228.827 35.096V50.808ZM228.827 33.208C228.827 33.3573 227.846 33.432 225.883 33.432C223.942 33.432 222.971 33.368 222.971 33.24V28.632C222.971 28.4187 223.942 28.312 225.883 28.312C227.846 28.312 228.827 28.376 228.827 28.504V33.208ZM233.097 49.112C231.775 47.64 231.113 45.6027 231.113 43C231.113 40.3973 231.775 38.36 233.097 36.888C234.441 35.416 236.244 34.68 238.505 34.68C240.767 34.68 242.559 35.416 243.881 36.888C245.204 38.36 245.865 40.3973 245.865 43C245.865 45.6027 245.204 47.64 243.881 49.112C242.559 50.584 240.767 51.32 238.505 51.32C236.244 51.32 234.441 50.584 233.097 49.112ZM238.505 40.024C237.311 40.024 236.713 41.0053 236.713 42.968C236.713 44.9307 237.311 45.912 238.505 45.912C239.721 45.912 240.329 44.9307 240.329 42.968C240.329 41.0053 239.721 40.024 238.505 40.024ZM254.816 50.808C254.816 50.9573 254.048 51.032 252.512 51.032C250.378 50.968 249.312 50.8507 249.312 50.68V40.312H248.48C247.925 40.312 247.562 39.8427 247.392 38.904C247.349 38.6267 247.328 38.3493 247.328 38.072C247.328 37.4107 247.456 36.7493 247.712 36.088C248.096 35.1493 248.693 34.68 249.504 34.68C250.314 34.68 251.04 34.872 251.68 35.256C252.32 35.64 252.746 36.024 252.96 36.408C254.304 35.256 255.904 34.68 257.76 34.68C259.616 34.68 260.96 35.1813 261.792 36.184C262.624 37.1867 263.04 38.8293 263.04 41.112V50.712C263.04 50.968 262.122 51.096 260.288 51.096C258.474 51.096 257.568 50.968 257.568 50.712V41.464C257.568 40.3973 257.194 39.864 256.448 39.864C256.234 39.864 255.936 39.96 255.552 40.152C255.168 40.3227 254.922 40.4507 254.816 40.536V50.808ZM277.849 50.136C276.505 50.9253 274.777 51.32 272.665 51.32C270.553 51.32 268.771 50.6053 267.321 49.176C265.87 47.7253 265.145 45.7307 265.145 43.192C265.145 40.632 265.838 38.5733 267.225 37.016C268.633 35.4587 270.403 34.68 272.536 34.68C274.67 34.68 276.313 35.224 277.465 36.312C278.638 37.4 279.225 38.7227 279.225 40.28C279.225 43.736 277.241 45.464 273.273 45.464H271.065C271.065 46.104 271.235 46.552 271.577 46.808C271.939 47.0427 272.462 47.16 273.145 47.16C274.638 47.16 276.057 46.8187 277.401 46.136C277.422 46.1147 277.518 46.264 277.689 46.584C278.201 47.5013 278.457 48.28 278.457 48.92C278.457 49.5387 278.254 49.944 277.849 50.136ZM273.849 40.888C273.849 39.992 273.411 39.544 272.536 39.544C272.131 39.544 271.779 39.672 271.481 39.928C271.203 40.1627 271.065 40.5147 271.065 40.984V41.976H272.793C273.497 41.976 273.849 41.6133 273.849 40.888ZM281.987 45.24C283.715 46.2853 285.08 46.808 286.083 46.808C286.723 46.808 287.043 46.584 287.043 46.136C287.043 45.816 286.488 45.4 285.379 44.888C282.712 43.8 281.379 42.0187 281.379 39.544C281.379 37.9653 281.955 36.76 283.107 35.928C284.259 35.096 285.635 34.68 287.235 34.68C288.856 34.68 290.222 34.8507 291.331 35.192C292.462 35.5333 293.027 35.9813 293.027 36.536C293.027 37.0053 292.792 37.624 292.323 38.392C291.875 39.16 291.566 39.576 291.395 39.64C290.478 39.128 289.486 38.872 288.419 38.872C287.843 38.872 287.555 39.0747 287.555 39.48C287.555 39.736 287.662 39.96 287.875 40.152C288.11 40.3227 288.526 40.5467 289.123 40.824C289.72 41.08 290.211 41.3147 290.595 41.528C291 41.7413 291.448 42.04 291.939 42.424C292.963 43.2347 293.475 44.2907 293.475 45.592C293.475 47.2987 292.91 48.6853 291.779 49.752C290.648 50.7973 288.942 51.32 286.659 51.32C285.144 51.32 283.768 51.064 282.531 50.552C281.294 50.04 280.675 49.336 280.675 48.44C280.675 47.8427 280.814 47.2133 281.091 46.552C281.39 45.8907 281.688 45.4533 281.987 45.24Z" fill="url(#paint2_linear_1346_134)"/>
<path d="M74.6 82.528V63.328C74.6 62.7947 74.728 62.3787 74.984 62.08C75.2613 61.76 75.6133 61.6 76.04 61.6H81.384C84.776 61.6 87.3467 62.4533 89.096 64.16C90.8667 65.8667 91.752 68.5547 91.752 72.224C91.752 80.0747 88.4027 84 81.704 84H76.232C75.144 84 74.6 83.5093 74.6 82.528ZM80.744 67.68V77.248C80.744 77.696 80.776 77.984 80.84 78.112C80.904 78.2187 81.096 78.272 81.416 78.272C82.5893 78.272 83.4747 77.8347 84.072 76.96C84.6907 76.0853 85 74.6347 85 72.608C85 70.56 84.68 69.2267 84.04 68.608C83.4213 67.9893 82.4293 67.68 81.064 67.68H80.744ZM95.5348 82.112C94.2121 80.64 93.5508 78.6027 93.5508 76C93.5508 73.3973 94.2121 71.36 95.5348 69.888C96.8788 68.416 98.6814 67.68 100.943 67.68C103.204 67.68 104.996 68.416 106.319 69.888C107.641 71.36 108.303 73.3973 108.303 76C108.303 78.6027 107.641 80.64 106.319 82.112C104.996 83.584 103.204 84.32 100.943 84.32C98.6814 84.32 96.8788 83.584 95.5348 82.112ZM100.943 73.024C99.7481 73.024 99.1508 74.0053 99.1508 75.968C99.1508 77.9307 99.7481 78.912 100.943 78.912C102.159 78.912 102.767 77.9307 102.767 75.968C102.767 74.0053 102.159 73.024 100.943 73.024ZM110.725 61.696C110.725 61.44 111.642 61.312 113.477 61.312C115.333 61.312 116.261 61.4507 116.261 61.728V67.936C117.178 67.7653 117.829 67.68 118.213 67.68C122.693 67.68 124.933 70.2507 124.933 75.392C124.933 78.2507 124.24 80.4587 122.853 82.016C121.488 83.552 119.536 84.32 116.997 84.32C114.48 84.32 112.389 83.7547 110.725 82.624V61.696ZM117.317 72.672C116.954 72.672 116.602 72.7893 116.261 73.024V79.136C116.56 79.264 116.869 79.328 117.189 79.328C117.53 79.328 117.872 79.2 118.213 78.944C118.81 78.5173 119.109 77.5253 119.109 75.968C119.109 73.7707 118.512 72.672 117.317 72.672ZM133.014 83.744C133.014 83.936 131.926 84.032 129.75 84.032C128.043 84.0107 127.19 83.9253 127.19 83.776V61.984C127.19 61.664 128.225 61.504 130.294 61.504C132.107 61.568 133.014 61.6747 133.014 61.824V83.744ZM148.005 83.136C146.661 83.9253 144.933 84.32 142.821 84.32C140.709 84.32 138.927 83.6053 137.477 82.176C136.026 80.7253 135.301 78.7307 135.301 76.192C135.301 73.632 135.994 71.5733 137.381 70.016C138.789 68.4587 140.559 67.68 142.693 67.68C144.826 67.68 146.469 68.224 147.621 69.312C148.794 70.4 149.381 71.7227 149.381 73.28C149.381 76.736 147.397 78.464 143.429 78.464H141.221C141.221 79.104 141.391 79.552 141.733 79.808C142.095 80.0427 142.618 80.16 143.301 80.16C144.794 80.16 146.213 79.8187 147.557 79.136C147.578 79.1147 147.674 79.264 147.845 79.584C148.357 80.5013 148.613 81.28 148.613 81.92C148.613 82.5387 148.41 82.944 148.005 83.136ZM144.005 73.888C144.005 72.992 143.567 72.544 142.693 72.544C142.287 72.544 141.935 72.672 141.637 72.928C141.359 73.1627 141.221 73.5147 141.221 73.984V74.976H142.949C143.653 74.976 144.005 74.6133 144.005 73.888ZM172.703 84.064C170.847 84.064 169.844 83.7653 169.695 83.168L168.639 79.04H163.551L162.623 83.008C162.495 83.6693 161.471 84 159.551 84C158.527 84 157.769 83.9467 157.279 83.84C156.788 83.712 156.543 83.616 156.543 83.552L162.207 61.888C162.207 61.7173 163.668 61.632 166.591 61.632C169.513 61.632 170.975 61.7173 170.975 61.888L176.511 83.584C176.511 83.7333 176.02 83.8507 175.039 83.936C174.057 84.0213 173.279 84.064 172.703 84.064ZM164.351 74.976H167.711L166.271 68.352H166.079L164.351 74.976Z" fill="url(#paint3_linear_1346_134)"/>
<defs>
<filter id="filter0_d_1346_134" x="0.809238" y="19.5585" width="66.5925" height="77.4443" filterUnits="userSpaceOnUse" color-interpolation-filters="sRGB">
<feFlood flood-opacity="0" result="BackgroundImageFix"/>
<feColorMatrix in="SourceAlpha" type="matrix" values="0 0 0 0 0 0 0 0 0 0 0 0 0 0 0 0 0 0 127 0" result="hardAlpha"/>
<feOffset dy="4.76645"/>
<feGaussianBlur stdDeviation="2.38322"/>
<feComposite in2="hardAlpha" operator="out"/>
<feColorMatrix type="matrix" values="0 0 0 0 0 0 0 0 0 0 0 0 0 0 0 0 0 0 0.25 0"/>
<feBlend mode="normal" in2="BackgroundImageFix" result="effect1_dropShadow_1346_134"/>
<feBlend mode="normal" in="SourceGraphic" in2="effect1_dropShadow_1346_134" result="shape"/>
</filter>
<linearGradient id="paint0_linear_1346_134" x1="23.4023" y1="17.0904" x2="23.4023" y2="107.028" gradientUnits="userSpaceOnUse">
<stop stop-color="white"/>
<stop offset="1" stop-color="#B7B7B7" stop-opacity="0"/>
</linearGradient>
<linearGradient id="paint1_linear_1346_134" x1="44.8086" y1="89.9379" x2="44.8086" y2="1.52588e-05" gradientUnits="userSpaceOnUse">
<stop stop-color="white"/>
<stop offset="1" stop-color="#B7B7B7" stop-opacity="0"/>
</linearGradient>
<linearGradient id="paint2_linear_1346_134" x1="184" y1="21" x2="184.14" y2="69.3653" gradientUnits="userSpaceOnUse">
<stop stop-color="white"/>
<stop offset="1" stop-color="#D3D3D3" stop-opacity="0"/>
</linearGradient>
<linearGradient id="paint3_linear_1346_134" x1="125.5" y1="54" x2="125.795" y2="102.364" gradientUnits="userSpaceOnUse">
<stop stop-color="white"/>
<stop offset="1" stop-color="#D3D3D3" stop-opacity="0"/>
</linearGradient>
</defs>
</svg>
