<svg width="239" height="61" viewBox="0 0 239 61" fill="none" xmlns="http://www.w3.org/2000/svg">
<path d="M27.7628 46.8546L9.3792 28.471L28.6216 9.22855L31.3724 11.9794L14.8809 28.471L30.5137 44.1038L27.7628 46.8546Z" fill="url(#paint0_linear_407_2)"/>
<path d="M52.5601 41.5274C51.2272 42.8603 49.7601 43.898 48.1588 44.6405C46.5664 45.3919 44.9472 45.8124 43.3012 45.9019C41.6552 45.9913 40.036 45.7408 38.4436 45.1504C36.8602 44.5689 35.4065 43.6162 34.0825 42.2922L24.3808 32.5905L27.1317 29.8397L36.8334 39.5414C37.7816 40.4897 38.8104 41.1606 39.9197 41.5542C41.0379 41.9568 42.1651 42.1088 43.3012 42.0104C44.4552 41.912 45.5868 41.5855 46.6961 41.0309C47.8233 40.4762 48.861 39.7248 49.8093 38.7765C50.7575 37.8283 51.5045 36.795 52.0502 35.6768C52.6048 34.5675 52.9269 33.4404 53.0163 32.2953C53.1237 31.1502 52.9761 30.0186 52.5735 28.9004C52.1888 27.7821 51.5224 26.7489 50.5741 25.8006L39.5037 14.7302L23.0121 31.2218L20.2613 28.471L39.5037 9.22855L53.325 23.0498C54.6489 24.3738 55.5972 25.832 56.1697 27.4243C56.7601 29.0167 57.0062 30.6403 56.9078 32.2953C56.8183 33.9413 56.3978 35.5605 55.6464 37.1529C54.9128 38.7452 53.8841 40.2034 52.5601 41.5274Z" fill="url(#paint1_linear_407_2)"/>
<path d="M61.9838 17.9521V17.4037C61.9838 16.8338 62.1451 16.3822 62.4677 16.0489C62.801 15.7156 63.258 15.5489 63.8386 15.5489H65.8386C66.4085 15.5489 66.8601 15.7156 67.1934 16.0489C67.5267 16.3715 67.6934 16.8231 67.6934 17.4037V17.9521C67.6934 18.522 67.5267 18.9736 67.1934 19.3069C66.8708 19.6402 66.4192 19.8069 65.8386 19.8069H63.8386C63.2687 19.8069 62.8171 19.6402 62.4838 19.3069C62.1505 18.9736 61.9838 18.522 61.9838 17.9521ZM62.0483 38.0162V22.7101C62.0483 22.4197 62.1397 22.1832 62.3225 22.0004C62.5161 21.8176 62.7526 21.7262 63.0322 21.7262H66.645C66.9353 21.7262 67.1719 21.823 67.3547 22.0165C67.5375 22.1993 67.6289 22.4305 67.6289 22.7101V38.0162C67.6289 38.3065 67.5321 38.543 67.3385 38.7258C67.1557 38.9086 66.9246 39 66.645 39H63.0322C62.7419 39 62.5053 38.9086 62.3225 38.7258C62.1397 38.543 62.0483 38.3065 62.0483 38.0162ZM73.1449 36.9678C71.489 35.3979 70.661 33.1399 70.661 30.1938C70.661 27.2368 71.4944 24.9681 73.161 23.3875C74.8276 21.7961 77.1394 21.0004 80.0963 21.0004C83.0532 21.0004 85.3596 21.7746 87.0155 23.3229C88.6714 24.8605 89.4993 27.0702 89.4993 29.9518V30.8712C89.4993 31.1615 89.4025 31.4034 89.209 31.5969C89.0262 31.7797 88.7897 31.8711 88.4993 31.8711H76.3545C76.462 33.1937 76.8383 34.156 77.4835 34.7582C78.1394 35.3603 79.1824 35.6614 80.6124 35.6614C82.0425 35.6614 83.021 35.3388 83.5478 34.6936C84.0747 34.0485 84.7252 33.7206 85.4994 33.7098H87.9026C88.1929 33.7098 88.4295 33.8066 88.6122 34.0001C88.8058 34.1829 88.9026 34.4195 88.9026 34.7098C88.9026 37.7957 85.9618 39.3333 80.0802 39.3226C77.1125 39.3226 74.8007 38.5376 73.1449 36.9678ZM76.3222 28.468H83.822C83.7145 25.9304 82.4672 24.6616 80.0802 24.6616C77.7039 24.6616 76.4512 25.9304 76.3222 28.468ZM99.6281 37.6452C97.1873 37.6452 95.2142 36.9087 93.7089 35.4356C92.2143 33.9625 91.467 31.9195 91.467 29.3067C91.467 26.6938 92.3218 24.6562 94.0315 23.1939C95.7411 21.7316 98.1927 21.0004 101.386 21.0004C102.945 21.0004 104.563 21.1778 106.241 21.5327C107.918 21.8767 109.182 22.3015 110.031 22.8068V37.742C110.031 40.1398 109.241 41.9085 107.66 43.0483C106.08 44.1988 103.859 44.7741 100.999 44.7741C98.1497 44.7741 95.9508 44.4139 94.4024 43.6934C92.8648 42.9838 92.096 41.8064 92.096 40.1613C92.096 39.8709 92.1874 39.629 92.3702 39.4355C92.5638 39.2527 92.8057 39.1613 93.096 39.1613H95.4992C96.2734 39.1613 96.8916 39.4462 97.354 40.0161C97.9454 40.7473 98.9937 41.1129 100.499 41.1129C102.015 41.1129 103.053 40.8655 103.612 40.3709C104.171 39.8763 104.451 39 104.451 37.742V36.9839C102.73 37.4248 101.123 37.6452 99.6281 37.6452ZM101.047 24.9036C98.4991 24.8928 97.2249 26.3659 97.2249 29.3228C97.2249 32.269 98.4669 33.7421 100.951 33.7421C101.983 33.7421 103.15 33.5808 104.451 33.2582V25.2584C103.526 25.0111 102.391 24.8928 101.047 24.9036ZM115.531 37C113.854 35.4517 113.015 33.1722 113.015 30.1615C113.015 27.1401 113.854 24.8605 115.531 23.3229C117.208 21.7746 119.617 21.0004 122.757 21.0004C125.907 21.0004 128.321 21.7746 129.998 23.3229C131.676 24.8605 132.514 27.1401 132.514 30.1615C132.514 33.1722 131.676 35.4517 129.998 37C128.321 38.5484 125.907 39.3226 122.757 39.3226C119.617 39.3226 117.208 38.5484 115.531 37ZM119.612 25.968C118.945 26.839 118.612 28.2314 118.612 30.1454C118.612 32.0593 118.945 33.4571 119.612 34.3388C120.278 35.2205 121.327 35.6614 122.757 35.6614C124.197 35.6614 125.251 35.2205 125.918 34.3388C126.595 33.4571 126.934 32.0593 126.934 30.1454C126.934 28.2314 126.595 26.839 125.918 25.968C125.251 25.0971 124.197 24.6616 122.757 24.6616C121.327 24.6616 120.278 25.0971 119.612 25.968ZM135.821 37.5162V17.436C135.821 16.9951 135.971 16.6242 136.272 16.3231C136.574 16.022 136.934 15.8715 137.353 15.8715L140.385 15.8715C140.805 15.8715 141.159 16.022 141.45 16.3231C141.751 16.6242 141.901 16.9951 141.901 17.436V34.4356H155.949C156.369 34.4356 156.724 34.5861 157.014 34.8872C157.315 35.1883 157.465 35.5485 157.465 35.9678V37.4839C157.465 37.9033 157.315 38.2635 157.014 38.5645C156.724 38.8548 156.369 39 155.949 39H137.353C136.934 39 136.574 38.8602 136.272 38.5807C135.971 38.2903 135.821 37.9355 135.821 37.5162ZM160.917 37.8387C159.498 36.8495 158.788 35.4517 158.788 33.6453C158.788 31.8389 159.498 30.4518 160.917 29.4841C162.347 28.5164 164.186 28.0325 166.433 28.0325H171.772C171.772 26.7745 171.508 25.8982 170.981 25.4035C170.454 24.9089 169.53 24.6616 168.207 24.6616C166.895 24.6616 165.971 24.9896 165.433 25.6455C164.906 26.2906 164.256 26.6132 163.481 26.6132H161.078C160.788 26.6132 160.546 26.5218 160.353 26.339C160.17 26.1455 160.078 25.9089 160.078 25.6293C160.078 22.5434 163.008 21.0004 168.868 21.0004C171.428 21.0004 173.481 21.5757 175.03 22.7262C176.578 23.8659 177.352 25.6347 177.352 28.0325V38.0162C177.352 38.3065 177.261 38.543 177.078 38.7258C176.895 38.9086 176.659 39 176.368 39H173.255C172.965 39 172.729 38.9086 172.546 38.7258C172.363 38.5323 172.272 38.2957 172.272 38.0162V37.5162C170.573 38.7312 168.61 39.3333 166.385 39.3226C164.17 39.3226 162.347 38.828 160.917 37.8387ZM166.82 31.6937C166.067 31.6937 165.471 31.8765 165.03 32.2421C164.6 32.6077 164.385 33.0808 164.385 33.6614C164.385 34.242 164.61 34.7205 165.062 35.0969C165.514 35.4732 166.153 35.6614 166.981 35.6614C168.637 35.6614 170.234 35.1775 171.772 34.2098V31.6937H166.82ZM193.561 25.4197L191.078 25.3229C189.626 25.3229 188.239 26.1186 186.916 27.7099V38.0162C186.916 38.3065 186.82 38.543 186.626 38.7258C186.443 38.9086 186.212 39 185.933 39H182.32C182.029 39 181.793 38.9086 181.61 38.7258C181.427 38.543 181.336 38.3065 181.336 38.0162V22.323C181.336 22.0326 181.427 21.7961 181.61 21.6133C181.804 21.4198 182.04 21.323 182.32 21.323H185.933C186.223 21.323 186.459 21.4198 186.642 21.6133C186.825 21.7961 186.916 22.0326 186.916 22.323V23.3391C188.013 22.5434 189.067 21.9574 190.078 21.581C191.099 21.194 192.432 21.0004 194.078 21.0004C194.368 21.0004 194.604 21.0972 194.787 21.2907C194.981 21.4735 195.078 21.7047 195.078 21.9843V24.4358C195.078 24.7261 194.981 24.9627 194.787 25.1455C194.604 25.3283 194.368 25.4197 194.078 25.4197H193.561ZM204.561 37.6452C202.12 37.6452 200.147 36.9087 198.642 35.4356C197.147 33.9625 196.4 31.9195 196.4 29.3067C196.4 26.6938 197.255 24.6562 198.965 23.1939C200.674 21.7316 203.126 21.0004 206.319 21.0004C207.878 21.0004 209.497 21.1778 211.174 21.5327C212.851 21.8767 214.115 22.3015 214.964 22.8068V37.742C214.964 40.1398 214.174 41.9085 212.593 43.0483C211.013 44.1988 208.792 44.7741 205.932 44.7741C203.083 44.7741 200.884 44.4139 199.336 43.6934C197.798 42.9838 197.029 41.8064 197.029 40.1613C197.029 39.8709 197.121 39.629 197.303 39.4355C197.497 39.2527 197.739 39.1613 198.029 39.1613H200.432C201.206 39.1613 201.825 39.4462 202.287 40.0161C202.878 40.7473 203.927 41.1129 205.432 41.1129C206.948 41.1129 207.986 40.8655 208.545 40.3709C209.104 39.8763 209.384 39 209.384 37.742V36.9839C207.663 37.4248 206.056 37.6452 204.561 37.6452ZM205.981 24.9036C203.432 24.8928 202.158 26.3659 202.158 29.3228C202.158 32.269 203.4 33.7421 205.884 33.7421C206.916 33.7421 208.083 33.5808 209.384 33.2582V25.2584C208.459 25.0111 207.325 24.8928 205.981 24.9036ZM220.464 37C218.787 35.4517 217.948 33.1722 217.948 30.1615C217.948 27.1401 218.787 24.8605 220.464 23.3229C222.141 21.7746 224.55 21.0004 227.69 21.0004C230.84 21.0004 233.254 21.7746 234.931 23.3229C236.609 24.8605 237.448 27.1401 237.448 30.1615C237.448 33.1722 236.609 35.4517 234.931 37C233.254 38.5484 230.84 39.3226 227.69 39.3226C224.55 39.3226 222.141 38.5484 220.464 37ZM224.545 25.968C223.878 26.839 223.545 28.2314 223.545 30.1454C223.545 32.0593 223.878 33.4571 224.545 34.3388C225.211 35.2205 226.26 35.6614 227.69 35.6614C229.131 35.6614 230.184 35.2205 230.851 34.3388C231.528 33.4571 231.867 32.0593 231.867 30.1454C231.867 28.2314 231.528 26.839 230.851 25.968C230.184 25.0971 229.131 24.6616 227.69 24.6616C226.26 24.6616 225.211 25.0971 224.545 25.968Z" fill="url(#paint2_linear_407_2)"/>
<defs>
<linearGradient id="paint0_linear_407_2" x1="43.8407" y1="10.6066" x2="10.6067" y2="43.8406" gradientUnits="userSpaceOnUse">
<stop stop-color="#212121"/>
<stop offset="1" stop-color="#262626" stop-opacity="0.13"/>
</linearGradient>
<linearGradient id="paint1_linear_407_2" x1="57.5512" y1="13.435" x2="24.3172" y2="46.669" gradientUnits="userSpaceOnUse">
<stop stop-color="#212121"/>
<stop offset="1" stop-color="#262626" stop-opacity="0.13"/>
</linearGradient>
<linearGradient id="paint2_linear_407_2" x1="149.5" y1="6" x2="149.5" y2="48" gradientUnits="userSpaceOnUse">
<stop stop-color="#212121"/>
<stop offset="1" stop-color="#262626" stop-opacity="0.13"/>
</linearGradient>
</defs>
</svg>
